# Blender 4.5.5 LTS
# www.blender.org
mtllib pistol.mtl
o Pistol
v -0.043029 -0.187329 -0.051902
v 0.043029 -0.187329 -0.051902
v 0.043029 0.115632 -0.314771
v -0.043029 0.115632 -0.314771
v -0.043029 0.049911 -0.314771
v -0.043029 0.115632 -0.069826
v 0.043029 0.115632 -0.069826
v 0.043029 0.115632 0.153472
v -0.043029 0.115632 0.153472
v -0.043029 0.186001 -0.444241
v 0.043029 0.186001 -0.444241
v -0.043029 -0.017866 -0.064706
v 0.043029 -0.017866 -0.064706
v 0.043029 0.101008 -0.069826
v -0.043029 -0.187329 0.116885
v 0.043029 -0.187329 0.116885
v -0.043029 -0.068709 0.102178
v 0.043029 -0.068709 0.102178
v 0.043029 0.115632 -0.444241
v -0.043029 0.101008 -0.069826
v -0.043029 0.115632 -0.444241
v -0.043029 0.101008 0.168727
v 0.043029 0.101008 0.168727
v 0.043029 0.101008 0.129930
v 0.043029 0.111445 0.150427
v -0.043029 0.111445 0.150427
v -0.043029 0.186001 0.153472
v -0.038041 0.196173 0.143301
v -0.038041 0.196173 -0.069826
v -0.043029 0.186001 -0.069826
v 0.043029 0.186001 -0.069826
v 0.038041 0.196173 -0.069826
v 0.038041 0.196173 0.143301
v 0.043029 0.186001 0.153472
v -0.038041 0.196173 -0.434070
v 0.038041 0.196173 -0.434070
v -0.038041 0.196173 -0.308117
v -0.043029 0.186001 -0.314771
v 0.038041 0.196173 -0.308117
v 0.043029 0.186001 -0.314771
v 0.035706 0.115632 -0.314771
v -0.035706 0.115632 -0.314771
v 0.035706 0.115632 -0.444242
v -0.035706 0.115632 -0.444242
v 0.038041 0.196173 -0.420686
v -0.043029 0.186001 -0.430484
v 0.043029 0.186001 -0.430484
v -0.043029 0.115632 -0.430484
v 0.043029 0.115632 -0.430484
v -0.038041 0.196173 -0.420686
v -0.035706 0.115632 -0.430484
v 0.035706 0.115632 -0.430484
v 0.023680 0.059606 -0.314771
v 0.035706 0.084811 -0.314771
v 0.043027 0.049913 -0.314771
v 0.032184 0.066988 -0.314771
v -0.035706 0.084811 -0.314771
v -0.023680 0.059606 -0.314771
v -0.032184 0.066989 -0.314771
v 0.035706 0.079979 -0.444242
v 0.023680 0.054717 -0.444242
v 0.032184 0.062116 -0.444242
v -0.023680 0.054717 -0.444242
v -0.035706 0.079979 -0.444242
v -0.032184 0.062116 -0.444242
v -0.023680 0.059606 -0.430484
v -0.035706 0.084838 -0.430484
v -0.032184 0.066996 -0.430484
v 0.035706 0.084838 -0.430484
v 0.023680 0.059606 -0.430484
v 0.032184 0.066996 -0.430484
v -0.033605 -0.206581 -0.049407
v -0.033605 -0.219243 -0.045333
v -0.033605 -0.219243 0.106525
v -0.033605 -0.203828 0.113673
v 0.033605 -0.219243 -0.045333
v 0.033605 -0.206581 -0.049407
v 0.033605 -0.203828 0.113673
v 0.033605 -0.219243 0.106525
v -0.033605 -0.187329 0.108555
v -0.033605 -0.187329 -0.037463
v 0.033605 -0.187329 -0.037463
v 0.033605 -0.187329 0.108555
v -0.028958 0.049911 0.105675
v -0.043029 0.049911 0.081993
v -0.038908 0.049911 0.098738
v 0.043029 0.049911 0.081993
v 0.028958 0.049911 0.105675
v 0.038908 0.049911 0.098738
v -0.028958 -0.144888 0.156240
v -0.043029 -0.182505 0.121359
v -0.038908 -0.155906 0.146024
v 0.043029 -0.182505 0.121359
v 0.028958 -0.144888 0.156240
v 0.038908 -0.155906 0.146024
v -0.043029 -0.078905 0.113174
v -0.028958 -0.116878 0.154124
v -0.038908 -0.105756 0.142130
v -0.028958 -0.016491 0.119357
v -0.043029 -0.059153 0.105322
v -0.038908 -0.028986 0.115246
v 0.043029 -0.059153 0.105322
v 0.028958 -0.016491 0.119357
v 0.038908 -0.028986 0.115246
v 0.028958 -0.116878 0.154124
v 0.043029 -0.078905 0.113174
v 0.038908 -0.105756 0.142130
v 0.028958 0.090570 0.135245
v 0.043029 0.101006 0.155738
v 0.038908 0.093627 0.133689
v -0.043029 0.101008 0.129930
v -0.028958 0.090570 0.135245
v -0.043029 0.101006 0.155738
v -0.038908 0.093627 0.133689
v 0.000000 0.118333 -0.404201
v 0.000000 0.127660 -0.451911
v 0.011928 0.121529 -0.404201
v 0.011928 0.130856 -0.451911
v 0.020659 0.130260 -0.404201
v 0.020659 0.139588 -0.451911
v 0.023855 0.142188 -0.404201
v 0.023855 0.151515 -0.451911
v 0.020659 0.154116 -0.404201
v 0.020659 0.163443 -0.451911
v 0.011928 0.162847 -0.404201
v 0.011928 0.172175 -0.451911
v 0.000000 0.166043 -0.404201
v 0.000000 0.175371 -0.451911
v -0.011928 0.162847 -0.404201
v -0.011928 0.172175 -0.451911
v -0.020659 0.154116 -0.404201
v -0.020659 0.163443 -0.451911
v -0.023855 0.142188 -0.404201
v -0.023855 0.151515 -0.451911
v -0.020659 0.130260 -0.404201
v -0.020659 0.139588 -0.451911
v -0.011928 0.121529 -0.404201
v -0.011928 0.130856 -0.451911
v 0.006872 0.139613 -0.451911
v 0.000000 0.137772 -0.451911
v 0.011903 0.144643 -0.451911
v 0.013744 0.151515 -0.451911
v 0.011903 0.158387 -0.451911
v 0.006872 0.163418 -0.451911
v 0.000000 0.165259 -0.451911
v -0.006872 0.163418 -0.451911
v -0.011903 0.158387 -0.451911
v -0.013744 0.151515 -0.451911
v -0.011903 0.144643 -0.451911
v -0.006872 0.139613 -0.451911
v 0.006872 0.130286 -0.430772
v 0.000000 0.128444 -0.430772
v 0.011903 0.135316 -0.430772
v 0.013744 0.142188 -0.430772
v 0.011903 0.149060 -0.430772
v 0.006872 0.154091 -0.430772
v 0.000000 0.155932 -0.430772
v -0.006872 0.154091 -0.430772
v -0.011903 0.149060 -0.430772
v -0.013744 0.142188 -0.430772
v -0.011903 0.135316 -0.430772
v -0.006872 0.130286 -0.430772
v -0.012239 0.049911 -0.180193
v 0.012239 0.049911 -0.180193
v -0.012239 0.049911 -0.250793
v 0.012238 0.049912 -0.250793
v -0.026854 0.001606 -0.090434
v 0.026854 0.001606 -0.090434
v -0.026854 -0.017672 -0.084646
v 0.026854 -0.017672 -0.084646
v -0.012239 -0.031473 -0.101776
v 0.012239 -0.031473 -0.101776
v -0.012239 0.021305 -0.205961
v 0.012239 0.021305 -0.205961
v -0.012239 0.021305 -0.225025
v 0.012239 0.021305 -0.225025
v -0.012239 -0.031473 -0.233693
v 0.012239 -0.031473 -0.233693
v 0.012239 0.002595 -0.205961
v 0.012239 -0.017930 -0.185436
v 0.012239 -0.031469 -0.205962
v 0.012239 -0.017930 -0.225021
v 0.012239 -0.011918 -0.199950
v -0.012239 -0.017930 -0.185436
v -0.012239 0.002595 -0.205961
v -0.012239 -0.017930 -0.225021
v -0.012239 -0.031469 -0.205962
v -0.012239 -0.011918 -0.199950
v -0.019457 -0.009728 -0.099373
v -0.012239 -0.017930 -0.116288
v 0.012239 -0.017930 -0.116288
v 0.019457 -0.009728 -0.099373
v -0.043029 0.049911 -0.109638
v -0.043029 0.026364 -0.084063
v -0.043029 0.049911 -0.060469
v -0.043029 0.073472 -0.078032
v -0.043029 0.046637 -0.097711
v -0.043029 0.037694 -0.089708
v 0.043029 0.026364 -0.084063
v 0.043028 0.049911 -0.109638
v 0.043029 0.073472 -0.078032
v 0.043029 0.049911 -0.060469
v 0.043029 0.037694 -0.089708
v 0.043029 0.046637 -0.097711
v -0.005661 0.196173 0.124883
v -0.005661 0.196173 0.084242
v 0.005661 0.196173 0.084242
v 0.005661 0.196173 0.124883
v -0.005661 0.218755 0.124883
v -0.005661 0.218755 0.096202
v 0.005661 0.218755 0.096202
v 0.005661 0.218755 0.124883
v -0.018344 0.009676 -0.117092
v -0.018344 0.072361 -0.092808
v -0.018344 -0.004604 -0.136864
v -0.018344 0.080021 -0.112579
v 0.018344 0.009676 -0.117092
v 0.018344 0.072361 -0.092808
v 0.018344 -0.004604 -0.136864
v 0.018344 0.080021 -0.112579
vn -1.0000 -0.0000 -0.0000
vn 1.0000 -0.0000 -0.0000
vn 0.6453 0.7639 -0.0000
vn 0.8979 0.4403 -0.0000
vn -0.6453 0.7639 -0.0000
vn -0.8979 0.4403 -0.0000
vn -0.5401 0.7988 0.2649
vn -0.6739 0.6609 0.3304
vn 0.5401 0.7988 0.2649
vn 0.6739 0.6609 0.3304
vn -0.5401 0.7988 -0.2649
vn 0.5401 0.7988 -0.2649
vn 0.6739 0.6609 -0.3304
vn -0.6739 0.6609 -0.3304
vn -0.0000 1.0000 -0.0000
vn -0.0000 -0.0000 1.0000
vn -0.0000 -1.0000 -0.0000
vn -0.0000 -0.0000 -1.0000
vn -0.0001 -0.0000 -1.0000
vn 0.0001 -0.0000 -1.0000
vn -0.9964 -0.0843 0.0132
vn -0.9926 -0.1145 0.0405
vn -0.8695 -0.4655 0.1651
vn -0.9095 -0.4095 0.0712
vn -0.3524 -0.8819 0.3133
vn -0.3869 -0.9081 0.1600
vn 0.3869 -0.9081 0.1600
vn 0.3524 -0.8819 0.3133
vn 0.8695 -0.4655 0.1651
vn 0.9095 -0.4095 0.0712
vn 0.9926 -0.1145 0.0405
vn 0.9964 -0.0843 0.0132
vn -0.9955 -0.0946 -0.0000
vn -0.9012 -0.4333 -0.0000
vn -0.3843 -0.9232 -0.0000
vn 0.3843 -0.9232 -0.0000
vn 0.9012 -0.4333 -0.0000
vn 0.9955 -0.0946 -0.0000
vn -0.0000 -0.0753 -0.9972
vn -0.0000 -0.3882 -0.9216
vn -0.0001 -0.3882 -0.9216
vn -0.6771 -0.7359 -0.0000
vn -0.6293 -0.7771 -0.0000
vn -0.0000 -0.9165 0.4000
vn -0.0000 0.7219 0.6920
vn 0.9907 -0.1251 0.0534
vn 0.9193 -0.3893 0.0573
vn 0.7045 -0.7097 0.0001
vn -0.9193 -0.3893 0.0573
vn -0.7045 -0.7097 0.0001
vn -0.9907 -0.1251 0.0534
vn -0.0000 -0.3063 -0.9519
vn -0.0000 -0.4207 0.9072
vn -0.0000 -0.0667 0.9978
vn -0.0000 0.5272 -0.8497
vn -0.0000 0.2963 0.9551
vn 0.6293 -0.7771 -0.0000
vn 0.6771 -0.7359 -0.0000
vn 0.1498 -0.7690 0.6215
vn 0.7609 -0.5660 0.3172
vn -0.7609 -0.5660 0.3172
vn -0.1498 -0.7690 0.6215
vn -0.4244 0.1670 0.8899
vn -0.3293 0.2422 0.9126
vn -0.8805 0.1269 0.4568
vn -0.9054 0.0948 0.4138
vn -0.9949 0.0314 0.0960
vn -0.9944 0.0312 0.1013
vn 0.3293 0.2422 0.9126
vn 0.4244 0.1670 0.8899
vn 0.9054 0.0948 0.4138
vn 0.8805 0.1269 0.4568
vn 0.9944 0.0312 0.1013
vn 0.9949 0.0314 0.0960
vn 0.9961 -0.0203 0.0860
vn 0.8756 -0.1363 0.4634
vn 0.2922 -0.2185 0.9311
vn -0.9961 -0.0203 0.0860
vn -0.8756 -0.1363 0.4634
vn -0.2922 -0.2185 0.9311
vn -0.5052 0.0656 0.8605
vn -0.9566 0.0225 0.2905
vn -0.9992 0.0031 0.0399
vn 0.9992 0.0031 0.0399
vn 0.9566 0.0225 0.2905
vn 0.5052 0.0656 0.8605
vn -0.0000 -0.6799 0.7333
vn -0.0000 -0.9814 -0.1919
vn 0.5253 -0.8351 -0.1633
vn 0.5096 -0.8444 -0.1651
vn 0.8962 -0.4355 -0.0851
vn 0.8767 -0.4721 -0.0923
vn 0.9996 0.0289 0.0056
vn 0.9996 -0.0289 -0.0056
vn 0.8767 0.4721 0.0923
vn 0.8962 0.4355 0.0851
vn 0.5096 0.8444 0.1651
vn 0.5253 0.8351 0.1633
vn -0.0000 0.9814 0.1919
vn -0.5096 0.8444 0.1651
vn -0.5253 0.8351 0.1633
vn -0.8767 0.4721 0.0923
vn -0.8962 0.4355 0.0851
vn -0.9996 0.0289 0.0056
vn -0.9996 -0.0289 -0.0056
vn -0.8962 -0.4355 -0.0851
vn -0.8767 -0.4721 -0.0923
vn -0.5253 -0.8351 -0.1633
vn -0.5096 -0.8444 -0.1651
vn -0.8500 -0.4819 -0.2126
vn -0.9977 -0.0616 -0.0272
vn -0.9977 0.0616 0.0272
vn -0.8954 -0.4074 -0.1798
vn 0.5079 0.7881 0.3477
vn 0.8954 0.4074 0.1798
vn 0.8501 0.4819 0.2126
vn 0.4754 0.8049 0.3551
vn -0.5079 0.7881 0.3477
vn -0.0000 0.9149 0.4037
vn -0.4754 0.8049 0.3551
vn 0.8500 -0.4819 -0.2126
vn 0.4754 -0.8049 -0.3551
vn 0.5079 -0.7881 -0.3477
vn 0.8954 -0.4074 -0.1798
vn -0.4754 -0.8049 -0.3551
vn -0.5079 -0.7881 -0.3477
vn -0.8954 0.4074 0.1798
vn -0.8501 0.4819 0.2126
vn 0.9977 -0.0616 -0.0272
vn 0.9977 0.0616 0.0272
vn -0.0000 -0.9149 -0.4037
vn -0.0000 -0.9801 -0.1985
vn -0.0000 -0.3585 -0.9335
vn -0.0000 -0.9928 0.1199
vn -0.0000 -0.9132 0.4076
vn -0.0000 -1.0000 0.0001
vn -0.0000 -0.9801 0.1985
vn -0.0000 -0.3585 0.9335
vn -0.0000 0.2809 -0.9597
vn -0.0000 0.5393 -0.8421
vn -0.0000 0.9808 0.1951
vn -0.0000 0.7071 0.7071
vn -0.0000 0.1951 0.9808
vn 0.8052 -0.2241 -0.5490
vn 0.9519 -0.1599 -0.2613
vn 0.9899 -0.0739 -0.1208
vn 0.8732 -0.2220 -0.4338
vn 0.7734 -0.2169 -0.5957
vn -0.0000 0.7111 -0.7031
vn -0.0000 0.9649 -0.2627
vn -0.9519 -0.1599 -0.2613
vn -0.8052 -0.2241 -0.5490
vn -0.8732 -0.2220 -0.4338
vn -0.9899 -0.0739 -0.1208
vn -0.0000 0.3415 -0.9399
vn -0.7734 -0.2169 -0.5957
vn -0.0000 -0.9643 -0.2647
vn -0.0000 -0.8502 -0.5264
vn -0.0000 -0.5614 -0.8275
vn -0.0000 -0.4459 -0.8951
vn -0.7194 -0.2557 -0.6458
vn -0.0000 0.2492 -0.9684
vn 0.7194 -0.2557 -0.6458
vn -0.0000 0.4680 -0.8837
vn -0.0000 0.2758 -0.9612
vn -0.0000 -0.3612 0.9325
vn -0.0000 -0.8107 0.5855
vn -0.0000 0.9325 0.3613
vt 0.373586 0.766098
vt 0.373587 0.883713
vt 0.782989 0.883713
vt 0.782989 0.766098
vt 0.688590 0.904602
vt 0.564007 0.900785
vt 0.571616 0.888276
vt 0.701522 0.892422
vt 0.299369 0.986493
vt 0.299477 0.900301
vt 0.564187 0.986482
vt 0.571712 0.998980
vt 0.299127 0.998980
vt 0.976393 0.766098
vt 0.976393 0.883713
vt 0.999386 0.883713
vt 0.999386 0.766098
vt 0.087729 0.978806
vt 0.073836 0.989132
vt 0.088724 0.909559
vt 0.073554 0.899176
vt 0.299210 0.887835
vt 0.701714 0.982314
vt 0.703026 0.905827
vt 0.718021 0.897622
vt 0.717516 0.990399
vt 0.687925 0.983601
vt 0.700503 0.995745
vt 0.000365 0.766098
vt 0.000365 0.883713
vt 0.144172 0.938460
vt 0.105380 0.938459
vt 0.000280 0.989362
vt -0.000002 0.899406
vt 0.999388 0.766098
vt 0.793422 0.982918
vt 0.793379 0.990812
vt 0.793885 0.898035
vt 0.793842 0.905930
vt 0.976393 0.714629
vt 0.999388 0.706507
vt 0.999388 0.676651
vt 0.976393 0.684808
vt 0.999388 0.664284
vt 0.976393 0.672456
vt 0.782989 0.714584
vt 0.782989 0.684796
vt 0.782989 0.672456
vt 0.782989 0.684794
vt 0.999931 0.920017
vt 0.999653 0.971075
vt 0.874905 0.970396
vt 0.875183 0.919338
vt 0.832278 0.906139
vt 0.851515 0.910041
vt 0.859442 0.919252
vt 0.859164 0.970310
vt 0.851138 0.979435
vt 0.831859 0.983127
vt 0.105327 0.949177
vt 0.144014 0.949567
vt 0.373586 0.601757
vt 0.373586 0.626199
vt 0.782989 0.626199
vt 0.742713 0.327119
vt 0.748289 0.327119
vt 0.748289 0.334926
vt 0.742713 0.334926
vt 0.742713 0.319313
vt 0.742713 0.320885
vt 0.750520 0.319313
vt 0.750520 0.350540
vt 0.750520 0.342733
vt 0.005454 0.619201
vt 0.039713 0.601757
vt 0.000365 0.626199
vt 0.750520 0.328253
vt 0.750520 0.333612
vt 0.750520 0.334541
vt 0.750520 0.334926
vt 0.750520 0.327119
vt 0.750520 0.328434
vt 0.742713 0.335456
vt 0.734906 0.335456
vt 0.734906 0.334926
vt 0.734906 0.342203
vt 0.742713 0.342203
vt 0.742713 0.342733
vt 0.734906 0.342733
vt 0.742713 0.326589
vt 0.742713 0.319843
vt 0.742713 0.350540
vt 0.742713 0.341161
vt 0.750520 0.344009
vt 0.750520 0.343107
vt 0.750520 0.350166
vt 0.750520 0.349263
vt 0.745003 0.349263
vt 0.748103 0.349263
vt 0.747933 0.350540
vt 0.745320 0.350540
vt 0.745163 0.319315
vt 0.747873 0.319362
vt 0.746866 0.320780
vt 0.746281 0.320719
vt 0.748103 0.344009
vt 0.744886 0.344009
vt 0.745079 0.342733
vt 0.747949 0.342733
vt 0.746244 0.341326
vt 0.746888 0.341275
vt 0.750520 0.341764
vt 0.750520 0.320282
vt 0.744061 0.349263
vt 0.744109 0.350540
vt 0.744109 0.319313
vt 0.742872 0.320706
vt 0.742838 0.341340
vt 0.743292 0.342426
vt 0.742826 0.343132
vt 0.750520 0.342259
vt 0.750520 0.319786
vt 0.061517 0.119828
vt 0.054039 0.127891
vt 0.067719 0.301049
vt 0.086098 0.318091
vt 0.365029 0.403070
vt 0.343628 0.119828
vt 0.734906 0.341161
vt 0.736362 0.342733
vt 0.735312 0.342325
vt 0.734906 0.341340
vt 0.080843 0.334062
vt 0.762230 0.334926
vt 0.762230 0.350540
vt 0.759628 0.350540
vt 0.759628 0.334926
vt 0.757025 0.350540
vt 0.757025 0.334926
vt 0.754423 0.350540
vt 0.754423 0.334926
vt 0.751821 0.350540
vt 0.751821 0.334926
vt 0.749218 0.350540
vt 0.749218 0.334926
vt 0.746616 0.350540
vt 0.746616 0.334926
vt 0.744014 0.350540
vt 0.744014 0.334926
vt 0.741412 0.350540
vt 0.741412 0.334926
vt 0.738809 0.350540
vt 0.738809 0.334926
vt 0.736207 0.350540
vt 0.736207 0.334926
vt 0.733605 0.350540
vt 0.733605 0.334926
vt 0.731003 0.350540
vt 0.731003 0.334926
vt 0.676056 0.516354
vt 0.558055 0.516353
vt 0.601123 0.468540
vt 0.632987 0.468540
vt 0.676056 0.516353
vt 0.601123 0.437268
vt 0.591077 0.413011
vt 0.566818 0.402963
vt 0.601125 0.380334
vt 0.632980 0.402963
vt 0.647475 0.380327
vt 0.398357 0.403394
vt 0.426988 0.380327
vt 0.451243 0.402963
vt 0.422972 0.416672
vt 0.408031 0.435615
vt 0.440129 0.516353
vt 0.420194 0.510881
vt 0.406817 0.495933
vt 0.397382 0.476996
vt 0.357947 0.516353
vt 0.387302 0.555733
vt 0.750520 0.334886
vt 0.750520 0.334689
vt 0.750520 0.327332
vt 0.750520 0.334840
vt 0.750520 0.327385
vt 0.750520 0.327365
vt 0.119835 0.516353
vt 0.782989 0.516353
vt 0.782989 0.516356
vt 0.750520 0.350087
vt 0.750944 0.342427
vt 0.750972 0.334926
vt 0.757874 0.334926
vt 0.757874 0.342377
vt 0.750520 0.319668
vt 0.743099 0.320858
vt 0.750133 0.320858
vt 0.750133 0.327892
vt 0.743099 0.327892
vt 0.750133 0.334926
vt 0.743099 0.334926
vt 0.750133 0.341961
vt 0.743099 0.341961
vt 0.750133 0.348995
vt 0.743099 0.348995
vt 0.736065 0.334926
vt 0.736065 0.341961
vt 0.757168 0.334926
vt 0.757168 0.341961
s 1
usemtl Pistol
f 6/1/1 30/2/1 38/3/1 4/4/1
f 31/2/2 7/1/2 3/4/2 40/3/2
f 45/5/3 39/6/3 40/7/4 47/8/4
f 29/9/5 32/10/3 39/6/3 37/11/5
f 29/9/5 37/11/5 38/12/6 30/13/6
f 48/14/1 46/15/1 10/16/1 21/17/1
f 47/15/2 49/14/2 19/17/2 11/16/2
f 28/18/7 29/9/5 30/13/6 27/19/8
f 32/10/3 33/20/9 34/21/10 31/22/4
f 33/20/9 28/18/7 27/19/8 34/21/10
f 35/23/11 36/24/12 11/25/13 10/26/14
f 50/27/5 35/23/11 10/26/14 46/28/6
f 39/6/3 32/10/3 31/22/4 40/7/4
f 6/1/1 9/29/1 27/30/1 30/2/1
f 33/20/9 32/10/3 207/31/15 208/32/15
f 9/33/16 8/34/16 34/21/16 27/19/16
f 50/27/5 45/5/3 36/24/12 35/23/11
f 8/29/2 7/1/2 31/2/2 34/30/2
f 49/14/17 52/14/17 43/35/17 19/17/17
f 48/14/17 51/14/17 42/4/17 4/4/17
f 10/26/18 44/36/18 21/37/19
f 19/38/20 43/39/18 11/25/18
f 11/25/18 43/39/18 44/36/18 10/26/18
f 21/17/17 44/35/17 51/14/17 48/14/17
f 3/4/17 41/4/17 52/14/17 49/14/17
f 40/3/2 3/4/2 47/15/2
f 37/11/5 39/6/3 45/5/3 50/27/5
f 4/4/1 38/3/1 46/15/1
f 37/11/5 50/27/5 46/28/6 38/12/6
f 3/4/2 49/14/2 47/15/2
f 4/4/1 46/15/1 48/14/1
f 36/24/12 45/5/3 47/8/4 11/25/13
f 67/40/21 64/41/22 65/42/23 68/43/24
f 68/43/24 65/42/23 63/44/25 66/45/26
f 70/45/27 61/44/28 62/42/29 71/43/30
f 71/43/30 62/42/29 60/41/31 69/40/32
f 57/46/33 67/40/21 68/43/24 59/47/34
f 59/47/34 68/43/24 66/45/26 58/48/35
f 53/48/36 70/45/27 71/43/30 56/49/37
f 56/49/37 71/43/30 69/40/32 54/46/38
f 53/50/36 58/51/35 66/52/26 70/53/27
f 54/46/38 69/40/32 52/14/2 41/4/2
f 42/4/1 51/14/1 67/40/21 57/46/33
f 60/54/18 62/55/18 61/56/18 63/57/18 65/58/18 64/59/18 44/36/18 43/39/18
f 69/40/32 60/41/31 43/35/2 52/14/2
f 70/53/27 66/52/26 63/57/25 61/56/28
f 51/14/1 44/35/1 64/41/22 67/40/21
f 29/9/5 28/18/7 205/60/15 206/61/15
f 28/18/7 33/20/9 208/32/15 205/60/15
f 32/10/3 29/9/5 206/61/15 207/31/15
f 20/62/1 6/63/1 4/64/1
f 7/63/2 14/62/2 3/64/2
f 1/65/39 12/66/40 13/67/41 2/68/39
f 1/65/17 81/65/42 80/69/43 15/70/44
f 9/71/45 22/72/45 23/73/45 8/73/45
f 25/74/2 24/75/46 14/62/2 7/63/2 8/76/2
f 109/73/47 25/73/2 8/73/2 23/73/48
f 113/72/49 109/73/47 23/73/48 22/72/50
f 9/71/1 26/77/1 113/72/49 22/72/50
f 20/62/1 111/75/51 26/74/1 9/76/1 6/63/1
f 53/78/18 56/79/18 55/80/18
f 56/79/18 54/80/18 55/80/18
f 57/81/18 59/81/18 5/81/18
f 59/81/18 58/81/18 5/81/18
f 55/80/18 5/81/18 58/82/18 53/78/18
f 55/80/18 54/80/18 41/80/18 3/80/18
f 4/81/18 42/81/18 57/81/18 5/81/18
f 76/83/52 73/84/52 72/85/52 77/68/52
f 74/86/53 79/87/53 78/88/54 75/89/54
f 72/65/1 73/90/1 74/91/1 75/69/1 80/69/43 81/65/42
f 73/84/17 76/83/17 79/87/17 74/86/17
f 77/68/55 72/65/55 81/65/55 82/68/55
f 80/92/56 75/92/54 78/88/54 83/88/56
f 83/88/57 78/88/2 79/87/2 76/83/2 77/68/2 82/68/58
f 16/93/44 15/70/44 80/92/43 83/88/57
f 16/93/44 83/88/57 82/68/58 2/68/17
f 2/68/17 82/68/58 81/65/42 1/65/17
f 108/94/59 110/95/60 109/73/47
f 110/95/60 24/73/46 109/73/47
f 111/72/51 114/96/61 113/72/49
f 114/96/61 112/97/62 113/72/49
f 97/98/63 99/99/64 101/100/65 98/101/66
f 98/102/66 101/103/65 100/104/67 96/105/68
f 103/106/69 105/107/70 107/108/71 104/109/72
f 104/109/72 107/108/71 106/110/73 102/111/74
f 102/111/74 87/112/75 89/73/76 104/109/72
f 104/109/72 89/73/76 88/94/77 103/106/69
f 85/113/78 100/104/67 101/103/65 86/71/79
f 86/72/79 101/100/65 99/99/64 84/97/80
f 90/114/81 97/98/63 98/101/66 92/115/82
f 92/116/82 98/102/66 96/105/68 91/117/83
f 93/118/84 106/110/73 107/108/71 95/119/85
f 95/119/85 107/108/71 105/107/70 94/120/86
f 108/94/59 88/94/77 89/73/76 110/73/60
f 110/73/60 89/73/76 87/112/75 24/121/46
f 111/122/51 85/113/78 86/71/79 114/71/61
f 114/72/61 86/72/79 84/97/80 112/97/62
f 84/97/80 88/94/77 108/94/59 112/97/62
f 103/106/69 88/94/77 84/97/80 99/99/64
f 15/123/1 91/124/83 96/125/68 17/126/1 12/127/1 1/128/1
f 15/129/44 16/93/44 93/118/87 95/119/87 94/120/87 90/130/87 92/131/87 91/132/87
f 94/120/86 105/107/70 97/98/63 90/114/81
f 2/128/2 13/127/2 18/126/2 106/125/73 93/124/84 16/123/2
f 96/125/68 100/133/67 17/126/1
f 103/106/69 99/99/64 97/98/63 105/107/70
f 102/133/74 106/125/73 18/126/2
f 109/73/47 113/72/49 112/97/62 108/94/59
f 109/73/47 24/121/46 25/73/2
f 111/122/51 113/71/49 26/71/1
f 115/134/88 116/135/88 118/136/89 117/137/90
f 117/137/90 118/136/89 120/138/91 119/139/92
f 119/139/92 120/138/91 122/140/93 121/141/94
f 121/141/94 122/140/93 124/142/95 123/143/96
f 123/143/96 124/142/95 126/144/97 125/145/98
f 125/145/98 126/144/97 128/146/99 127/147/99
f 127/147/99 128/146/99 130/148/100 129/149/101
f 129/149/101 130/148/100 132/150/102 131/151/103
f 131/151/103 132/150/102 134/152/104 133/153/105
f 133/153/105 134/152/104 136/154/106 135/155/107
f 138/156/18 136/154/18 149/154/18 150/156/18
f 135/155/107 136/154/106 138/156/108 137/157/109
f 137/157/109 138/156/108 116/158/88 115/159/88
f 143/142/110 142/140/111 154/140/112 155/142/113
f 120/138/18 118/136/18 139/136/18 141/138/18
f 136/154/18 134/152/18 148/152/18 149/154/18
f 134/152/18 132/150/18 147/150/18 148/152/18
f 132/150/18 130/148/18 146/148/18 147/150/18
f 130/148/18 128/146/18 145/146/18 146/148/18
f 128/146/18 126/144/18 144/144/18 145/146/18
f 126/144/18 124/142/18 143/142/18 144/144/18
f 124/142/18 122/140/18 142/140/18 143/142/18
f 116/158/18 138/156/18 150/156/18 140/158/18
f 118/136/18 116/135/18 140/135/18 139/136/18
f 122/140/18 120/138/18 141/138/18 142/140/18
f 150/156/114 149/154/115 161/154/116 162/156/117
f 139/136/118 140/135/119 152/135/119 151/136/120
f 147/150/121 146/148/122 158/148/123 159/150/124
f 144/144/125 143/142/110 155/142/113 156/144/126
f 140/158/119 150/156/114 162/156/117 152/158/119
f 141/138/127 139/136/118 151/136/120 153/138/128
f 148/152/129 147/150/121 159/150/124 160/152/130
f 145/146/131 144/144/125 156/144/126 157/146/131
f 142/140/111 141/138/127 153/138/128 154/140/112
f 149/154/115 148/152/129 160/152/130 161/154/116
f 146/148/122 145/146/131 157/146/131 158/148/123
f 165/81/132 166/80/132 176/80/133 175/81/133
f 5/81/17 55/80/17 166/80/132 165/81/132
f 170/67/134 169/66/134 171/66/135 172/67/135
f 13/67/41 12/66/40 169/66/134 170/67/134
f 187/81/136 181/80/136 172/67/135 171/66/135
f 164/80/137 163/81/137 173/81/138 174/80/138
f 166/160/2 164/161/2 174/162/2 176/163/2
f 163/161/1 165/164/1 175/163/1 173/162/1
f 181/80/136 187/81/136 177/81/136 178/80/136
f 186/81/139 182/80/139 178/80/140 177/81/140
f 175/81/133 176/80/133 182/80/139 186/81/139
f 179/165/2 183/166/2 180/167/2 181/168/2 182/169/2
f 184/167/1 188/166/1 185/165/1 186/169/1 187/168/1
f 184/81/141 180/80/141 183/80/142 188/81/142
f 188/81/142 183/80/142 179/80/143 185/81/143
f 182/169/2 181/168/2 178/170/2
f 174/80/138 173/81/138 185/81/143 179/80/143
f 176/163/2 174/162/2 179/165/2 182/169/2
f 173/162/1 175/163/1 186/169/1 185/165/1
f 187/168/1 186/169/1 177/170/1
f 170/171/144 172/172/145 191/173/146 192/174/147
f 170/171/144 192/174/147 168/175/148
f 189/81/149 192/80/149 191/80/150 190/81/150
f 180/80/141 184/81/141 190/81/150 191/80/150
f 171/172/151 169/171/152 189/174/153 190/173/154
f 167/81/155 168/80/155 192/80/149 189/81/149
f 184/167/1 187/168/1 171/172/151 190/173/154
f 181/168/2 180/167/2 191/173/146 172/172/145
f 169/171/152 167/175/156 189/174/153
f 193/176/1 197/177/1 198/178/1 194/179/1 195/180/1 196/181/1
f 199/179/2 203/178/2 204/177/2 200/176/2 201/181/2 202/180/2
f 193/81/157 200/182/157 204/183/158 197/184/158
f 197/184/158 204/183/158 203/185/159 198/186/159
f 198/186/159 203/185/159 199/80/160 194/187/160
f 200/182/17 193/81/17 163/81/137 164/80/137
f 12/127/161 194/179/161 167/175/156 169/171/152
f 194/187/162 199/80/162 168/80/155 167/81/155
f 193/81/17 5/81/17 165/81/132 163/81/137
f 17/126/1 100/133/67 85/188/78 195/180/1 194/179/1 12/127/1
f 193/176/1 196/181/1 20/62/1 4/64/1 5/189/1
f 196/181/1 195/180/1 85/188/78 111/75/51 20/62/1
f 87/188/75 202/180/2 201/181/2 14/62/2 24/75/46
f 199/179/163 13/127/163 170/171/144 168/175/148
f 14/62/2 201/181/2 200/176/2 55/190/2 3/64/2
f 13/127/2 199/179/2 202/180/2 87/188/75 102/133/74 18/126/2
f 55/80/17 200/182/17 164/80/137 166/80/132
f 205/191/16 208/192/16 212/192/16 209/191/16
f 211/193/15 210/194/15 209/195/15 212/192/15
f 206/81/1 205/196/1 209/196/1 210/81/1
f 207/193/164 206/194/164 210/194/164 211/193/164
f 208/192/2 207/193/2 211/193/2 212/192/2
f 213/197/1 214/198/1 216/199/1 215/200/1
f 215/200/165 216/199/165 220/201/165 219/202/165
f 219/202/2 220/201/2 218/203/2 217/204/2
f 217/204/166 218/203/166 214/205/166 213/206/166
f 215/207/167 219/202/167 217/204/167 213/208/167
f 220/201/168 216/209/168 214/210/168 218/203/168
