# Blender 4.5.5 LTS
# www.blender.org
mtllib pistol.mtl
o Cube.001
v -0.043029 -0.187329 -0.051902
v 0.043029 -0.187329 -0.051902
v 0.043029 0.115632 -0.314771
v -0.043029 0.115632 -0.314771
v -0.043029 0.049911 -0.314771
v -0.043029 0.115632 -0.069826
v 0.043029 0.115632 -0.069826
v 0.043029 0.115632 0.153472
v -0.043029 0.115632 0.153472
v -0.043029 0.186001 -0.444241
v 0.043029 0.186001 -0.444241
v -0.043029 -0.017866 -0.064706
v 0.043029 -0.017866 -0.064706
v 0.043029 0.101008 -0.069826
v -0.043029 -0.187329 0.116885
v 0.043029 -0.187329 0.116885
v -0.043029 -0.068709 0.102178
v 0.043029 -0.068709 0.102178
v 0.043029 0.115632 -0.444241
v -0.043029 0.101008 -0.069826
v -0.043029 0.115632 -0.444241
v -0.043029 0.101008 0.168727
v 0.043029 0.101008 0.168727
v 0.043029 0.101008 0.129930
v 0.043029 0.111445 0.150427
v -0.043029 0.111445 0.150427
v -0.043029 0.186001 0.153472
v -0.038041 0.196173 0.143301
v -0.038041 0.196173 -0.069826
v -0.043029 0.186001 -0.069826
v 0.043029 0.186001 -0.069826
v 0.038041 0.196173 -0.069826
v 0.038041 0.196173 0.143301
v 0.043029 0.186001 0.153472
v -0.038041 0.196173 -0.434070
v 0.038041 0.196173 -0.434070
v -0.038041 0.196173 -0.308117
v -0.043029 0.186001 -0.314771
v 0.038041 0.196173 -0.308117
v 0.043029 0.186001 -0.314771
v 0.035706 0.115632 -0.314771
v -0.035706 0.115632 -0.314771
v 0.035706 0.115632 -0.444242
v -0.035706 0.115632 -0.444242
v 0.038041 0.196173 -0.420686
v -0.043029 0.186001 -0.430484
v 0.043029 0.186001 -0.430484
v -0.043029 0.115632 -0.430484
v 0.043029 0.115632 -0.430484
v -0.038041 0.196173 -0.420686
v -0.035706 0.115632 -0.430484
v 0.035706 0.115632 -0.430484
v 0.023680 0.059606 -0.314771
v 0.035706 0.084811 -0.314771
v 0.043027 0.049913 -0.314771
v 0.032184 0.066988 -0.314771
v -0.035706 0.084811 -0.314771
v -0.023680 0.059606 -0.314771
v -0.032184 0.066989 -0.314771
v 0.035706 0.079979 -0.444242
v 0.023680 0.054717 -0.444242
v 0.032184 0.062116 -0.444242
v -0.023680 0.054717 -0.444242
v -0.035706 0.079979 -0.444242
v -0.032184 0.062116 -0.444242
v -0.023680 0.059606 -0.430484
v -0.035706 0.084838 -0.430484
v -0.032184 0.066996 -0.430484
v 0.035706 0.084838 -0.430484
v 0.023680 0.059606 -0.430484
v 0.032184 0.066996 -0.430484
v -0.033605 -0.206581 -0.049407
v -0.033605 -0.219243 -0.045333
v -0.033605 -0.219243 0.106525
v -0.033605 -0.203828 0.113673
v 0.033605 -0.219243 -0.045333
v 0.033605 -0.206581 -0.049407
v 0.033605 -0.203828 0.113673
v 0.033605 -0.219243 0.106525
v -0.033605 -0.187329 0.108555
v -0.033605 -0.187329 -0.037463
v 0.033605 -0.187329 -0.037463
v 0.033605 -0.187329 0.108555
v -0.028958 0.049911 0.105675
v -0.043029 0.049911 0.081993
v -0.038908 0.049911 0.098738
v 0.043029 0.049911 0.081993
v 0.028958 0.049911 0.105675
v 0.038908 0.049911 0.098738
v -0.028958 -0.144888 0.156240
v -0.043029 -0.182505 0.121359
v -0.038908 -0.155906 0.146024
v 0.043029 -0.182505 0.121359
v 0.028958 -0.144888 0.156240
v 0.038908 -0.155906 0.146024
v -0.043029 -0.078905 0.113174
v -0.028958 -0.116878 0.154124
v -0.038908 -0.105756 0.142130
v -0.028958 -0.016491 0.119357
v -0.043029 -0.059153 0.105322
v -0.038908 -0.028986 0.115246
v 0.043029 -0.059153 0.105322
v 0.028958 -0.016491 0.119357
v 0.038908 -0.028986 0.115246
v 0.028958 -0.116878 0.154124
v 0.043029 -0.078905 0.113174
v 0.038908 -0.105756 0.142130
v 0.028958 0.090570 0.135245
v 0.043029 0.101006 0.155738
v 0.038908 0.093627 0.133689
v -0.043029 0.101008 0.129930
v -0.028958 0.090570 0.135245
v -0.043029 0.101006 0.155738
v -0.038908 0.093627 0.133689
v -0.000000 0.118333 -0.404201
v -0.000000 0.127660 -0.451911
v 0.011928 0.121529 -0.404201
v 0.011928 0.130856 -0.451911
v 0.020659 0.130260 -0.404201
v 0.020659 0.139588 -0.451911
v 0.023855 0.142188 -0.404201
v 0.023855 0.151515 -0.451911
v 0.020659 0.154116 -0.404201
v 0.020659 0.163443 -0.451911
v 0.011928 0.162847 -0.404201
v 0.011928 0.172175 -0.451911
v -0.000000 0.166043 -0.404201
v -0.000000 0.175371 -0.451911
v -0.011928 0.162847 -0.404201
v -0.011928 0.172175 -0.451911
v -0.020659 0.154116 -0.404201
v -0.020659 0.163443 -0.451911
v -0.023855 0.142188 -0.404201
v -0.023855 0.151515 -0.451911
v -0.020659 0.130260 -0.404201
v -0.020659 0.139588 -0.451911
v -0.011928 0.121529 -0.404201
v -0.011928 0.130856 -0.451911
v 0.006872 0.139613 -0.451911
v 0.000000 0.137772 -0.451911
v 0.011903 0.144643 -0.451911
v 0.013744 0.151515 -0.451911
v 0.011903 0.158387 -0.451911
v 0.006872 0.163418 -0.451911
v 0.000000 0.165259 -0.451911
v -0.006872 0.163418 -0.451911
v -0.011903 0.158387 -0.451911
v -0.013744 0.151515 -0.451911
v -0.011903 0.144643 -0.451911
v -0.006872 0.139613 -0.451911
v 0.006872 0.130286 -0.430772
v 0.000000 0.128444 -0.430772
v 0.011903 0.135316 -0.430772
v 0.013744 0.142188 -0.430772
v 0.011903 0.149060 -0.430772
v 0.006872 0.154091 -0.430772
v 0.000000 0.155932 -0.430772
v -0.006872 0.154091 -0.430772
v -0.011903 0.149060 -0.430772
v -0.013744 0.142188 -0.430772
v -0.011903 0.135316 -0.430772
v -0.006872 0.130286 -0.430772
v -0.012239 0.049911 -0.180193
v 0.012239 0.049911 -0.180193
v -0.012239 0.049911 -0.250793
v 0.012238 0.049912 -0.250793
v -0.026854 0.001606 -0.090434
v 0.026854 0.001606 -0.090434
v -0.026854 -0.017672 -0.084646
v 0.026854 -0.017672 -0.084646
v -0.012239 -0.031473 -0.101776
v 0.012239 -0.031473 -0.101776
v -0.012239 0.021305 -0.205961
v 0.012239 0.021305 -0.205961
v -0.012239 0.021305 -0.225025
v 0.012239 0.021305 -0.225025
v -0.012239 -0.031473 -0.233693
v 0.012239 -0.031473 -0.233693
v 0.012239 0.002595 -0.205961
v 0.012239 -0.017930 -0.185436
v 0.012239 -0.031469 -0.205962
v 0.012239 -0.017930 -0.225021
v 0.012239 -0.011918 -0.199950
v -0.012239 -0.017930 -0.185436
v -0.012239 0.002595 -0.205961
v -0.012239 -0.017930 -0.225021
v -0.012239 -0.031469 -0.205962
v -0.012239 -0.011918 -0.199950
v -0.019457 -0.009728 -0.099373
v -0.012239 -0.017930 -0.116288
v 0.012239 -0.017930 -0.116288
v 0.019457 -0.009728 -0.099373
v -0.043029 0.049911 -0.109638
v -0.043029 0.026364 -0.084063
v -0.043029 0.049911 -0.060469
v -0.043029 0.073472 -0.078032
v -0.043029 0.046637 -0.097711
v -0.043029 0.037694 -0.089708
v 0.043029 0.026364 -0.084063
v 0.043028 0.049911 -0.109638
v 0.043029 0.073472 -0.078032
v 0.043029 0.049911 -0.060469
v 0.043029 0.037694 -0.089708
v 0.043029 0.046637 -0.097711
v -0.005661 0.196173 0.124883
v -0.005661 0.196173 0.084242
v 0.005661 0.196173 0.084242
v 0.005661 0.196173 0.124883
v -0.005661 0.218755 0.124883
v -0.005661 0.218755 0.096202
v 0.005661 0.218755 0.096202
v 0.005661 0.218755 0.124883
vn -1.0000 -0.0000 -0.0000
vn 1.0000 -0.0000 -0.0000
vn 0.6453 0.7639 -0.0000
vn 0.8979 0.4403 -0.0000
vn -0.6453 0.7639 -0.0000
vn -0.8979 0.4403 -0.0000
vn -0.0000 -0.0753 -0.9972
vn -0.0000 -0.3882 -0.9216
vn -0.0000 -1.0000 -0.0000
vn -0.6771 -0.7359 -0.0000
vn -0.6294 -0.7771 -0.0000
vn -0.0000 -0.9165 0.4000
vn -0.0000 0.7219 0.6920
vn 0.9907 -0.1251 0.0534
vn 0.9193 -0.3893 0.0573
vn 0.7045 -0.7097 0.0001
vn -0.9193 -0.3893 0.0573
vn -0.7045 -0.7097 0.0001
vn -0.9907 -0.1251 0.0534
vn -0.5401 0.7988 0.2649
vn -0.6739 0.6609 0.3304
vn 0.5401 0.7988 0.2649
vn 0.6739 0.6609 0.3304
vn -0.5401 0.7988 -0.2649
vn 0.5401 0.7988 -0.2649
vn 0.6739 0.6609 -0.3304
vn -0.6739 0.6609 -0.3304
vn -0.0000 1.0000 -0.0000
vn -0.0000 -0.0000 1.0000
vn -0.0000 -0.0000 -1.0000
vn -0.0001 -0.0000 -1.0000
vn 0.0001 -0.0000 -1.0000
vn -0.9964 -0.0843 0.0132
vn -0.9926 -0.1145 0.0405
vn -0.8695 -0.4654 0.1651
vn -0.9095 -0.4095 0.0712
vn -0.3524 -0.8819 0.3133
vn -0.3869 -0.9081 0.1600
vn 0.3869 -0.9081 0.1600
vn 0.3524 -0.8819 0.3133
vn 0.8695 -0.4654 0.1651
vn 0.9095 -0.4095 0.0712
vn 0.9926 -0.1145 0.0405
vn 0.9964 -0.0843 0.0132
vn -0.9955 -0.0946 -0.0000
vn -0.9012 -0.4333 -0.0000
vn -0.3843 -0.9232 -0.0000
vn 0.3843 -0.9232 -0.0000
vn 0.9012 -0.4333 -0.0000
vn 0.9955 -0.0946 -0.0000
vn -0.0000 -0.3063 -0.9519
vn -0.0000 -0.4207 0.9072
vn -0.0000 -0.0667 0.9978
vn -0.0000 0.5272 -0.8498
vn -0.0000 0.2963 0.9551
vn 0.6294 -0.7771 -0.0000
vn 0.6771 -0.7359 -0.0000
vn 0.1498 -0.7690 0.6215
vn 0.7609 -0.5660 0.3172
vn -0.7609 -0.5660 0.3172
vn -0.1498 -0.7690 0.6215
vn -0.4244 0.1670 0.8899
vn -0.3293 0.2422 0.9126
vn -0.8805 0.1269 0.4568
vn -0.9054 0.0948 0.4138
vn -0.9949 0.0314 0.0960
vn -0.9944 0.0312 0.1013
vn 0.3293 0.2422 0.9126
vn 0.4244 0.1670 0.8899
vn 0.9054 0.0948 0.4138
vn 0.8805 0.1269 0.4568
vn 0.9944 0.0312 0.1013
vn 0.9949 0.0314 0.0960
vn 0.9961 -0.0203 0.0860
vn 0.8756 -0.1363 0.4634
vn 0.2922 -0.2185 0.9311
vn -0.9961 -0.0203 0.0860
vn -0.8756 -0.1363 0.4634
vn -0.2922 -0.2185 0.9311
vn -0.5052 0.0656 0.8605
vn -0.9566 0.0225 0.2905
vn -0.9992 0.0031 0.0399
vn 0.9992 0.0031 0.0399
vn 0.9566 0.0225 0.2905
vn 0.5052 0.0656 0.8605
vn -0.0000 -0.6799 0.7333
vn -0.0000 -0.9814 -0.1919
vn 0.5253 -0.8351 -0.1633
vn 0.5096 -0.8444 -0.1651
vn 0.8962 -0.4355 -0.0851
vn 0.8767 -0.4721 -0.0923
vn 0.9996 0.0288 0.0056
vn 0.9996 -0.0288 -0.0056
vn 0.8767 0.4721 0.0923
vn 0.8962 0.4355 0.0851
vn 0.5096 0.8444 0.1651
vn 0.5253 0.8351 0.1633
vn -0.0000 0.9814 0.1919
vn -0.5096 0.8444 0.1651
vn -0.5253 0.8351 0.1633
vn -0.8767 0.4721 0.0923
vn -0.8962 0.4355 0.0851
vn -0.9996 0.0288 0.0056
vn -0.9996 -0.0288 -0.0056
vn -0.8962 -0.4355 -0.0851
vn -0.8767 -0.4721 -0.0923
vn -0.5253 -0.8351 -0.1633
vn -0.5096 -0.8444 -0.1651
vn -0.8501 -0.4819 -0.2126
vn -0.9977 -0.0616 -0.0272
vn -0.9977 0.0616 0.0272
vn -0.8954 -0.4074 -0.1798
vn 0.5079 0.7881 0.3477
vn 0.8954 0.4074 0.1798
vn 0.8501 0.4819 0.2126
vn 0.4754 0.8049 0.3551
vn -0.5079 0.7881 0.3477
vn -0.0000 0.9149 0.4037
vn -0.4754 0.8049 0.3551
vn 0.8501 -0.4819 -0.2126
vn 0.4754 -0.8049 -0.3551
vn 0.5079 -0.7881 -0.3477
vn 0.8954 -0.4074 -0.1798
vn -0.4754 -0.8049 -0.3551
vn -0.5079 -0.7881 -0.3477
vn -0.8954 0.4074 0.1798
vn -0.8501 0.4819 0.2126
vn 0.9977 -0.0616 -0.0272
vn 0.9977 0.0616 0.0272
vn -0.0000 -0.9149 -0.4037
vn -0.0000 -0.9801 -0.1985
vn -0.0000 -0.3585 -0.9335
vn -0.0000 -0.9928 0.1199
vn -0.0000 -0.9132 0.4076
vn -0.0000 -1.0000 0.0001
vn -0.0000 -0.9801 0.1985
vn -0.0000 -0.3585 0.9335
vn -0.0000 -1.0000 0.0002
vn -0.0000 0.2809 -0.9597
vn -0.0000 0.5392 -0.8422
vn -0.0000 0.9808 0.1951
vn -0.0000 0.7071 0.7071
vn -0.0000 0.1951 0.9808
vn 0.8052 -0.2241 -0.5490
vn 0.9519 -0.1599 -0.2613
vn 0.9899 -0.0739 -0.1208
vn 0.8732 -0.2220 -0.4338
vn 0.7734 -0.2169 -0.5957
vn -0.0000 0.7111 -0.7031
vn -0.0000 0.9649 -0.2627
vn -0.9519 -0.1599 -0.2613
vn -0.8052 -0.2241 -0.5490
vn -0.8732 -0.2220 -0.4338
vn -0.9899 -0.0739 -0.1208
vn -0.0000 0.3415 -0.9399
vn -0.7734 -0.2169 -0.5957
vn -0.0000 -0.9643 -0.2647
vn -0.0000 -0.8502 -0.5264
vn -0.0000 -0.5614 -0.8275
vn -0.0000 -0.4460 -0.8951
vn -0.7194 -0.2557 -0.6458
vn -0.0000 0.2492 -0.9684
vn 0.7194 -0.2557 -0.6458
vn -0.0000 0.4680 -0.8837
vt 0.625000 0.250000
vt 0.625000 0.250000
vt 0.625000 0.250000
vt 0.625000 0.500000
vt 0.625000 0.500000
vt 0.625000 0.500000
vt 0.638972 0.499483
vt 0.639138 0.499649
vt 0.625000 0.500000
vt 0.860511 0.500000
vt 0.639489 0.500000
vt 0.625000 0.250000
vt 0.625000 0.252931
vt 0.375000 0.250000
vt 0.553578 0.250000
vt 0.553578 0.500000
vt 0.375000 0.500000
vt 0.375000 0.000000
vt 0.375000 0.050345
vt 0.625000 0.000000
vt 0.625000 1.000000
vt 0.625000 0.750000
vt 0.625000 0.750000
vt 0.625000 0.750000
vt 0.625000 0.734828
vt 0.625000 1.000000
vt 0.625000 0.286304
vt 0.625000 0.015172
vt 0.625000 0.000000
vt 0.625000 0.011388
vt 0.638596 0.740207
vt 0.625000 0.750000
vt 0.625000 0.985511
vt 0.625000 1.000000
vt 0.625000 0.254480
vt 0.638952 0.499463
vt 0.625000 0.254316
vt 0.860511 0.500000
vt 0.625000 0.457899
vt 0.625000 0.487669
vt 0.625000 0.250000
vt 0.625000 0.261369
vt 0.625000 0.292101
vt 0.625000 0.292101
vt 0.625000 0.457899
vt 0.625000 0.488631
vt 0.625000 0.500000
vt 0.625000 0.292101
vt 0.375000 0.516973
vt 0.125000 0.516973
vt 0.125000 0.500000
vt 0.125000 0.733027
vt 0.375000 0.733027
vt 0.375000 0.750000
vt 0.125000 0.750000
vt 0.375000 0.250000
vt 0.375000 0.233027
vt 0.375000 0.016973
vt 0.375000 1.000000
vt 0.375000 0.750000
vt 0.375000 0.699655
vt 0.625000 0.790875
vt 0.625000 0.761972
vt 0.625000 0.750000
vt 0.625000 0.988028
vt 0.625000 1.000000
vt 0.625000 0.959125
vt 0.448331 0.959125
vt 0.547620 0.959125
vt 0.542168 1.000000
vt 0.458496 1.000000
vt 0.453465 0.000073
vt 0.540256 0.001575
vt 0.508009 0.046983
vt 0.489255 0.045046
vt 0.547620 0.790875
vt 0.444589 0.790875
vt 0.450778 0.750000
vt 0.542691 0.750000
vt 0.488078 0.704954
vt 0.508715 0.703316
vt 0.625000 0.718959
vt 0.625000 0.790875
vt 0.625000 0.031041
vt 0.418167 0.959125
vt 0.419723 1.000000
vt 0.419723 0.000000
vt 0.380084 0.044622
vt 0.379002 0.705378
vt 0.393554 0.740172
vt 0.378629 0.762770
vt 0.625000 0.015172
vt 0.625000 0.959125
vt 0.500000 0.057141
vt 0.125000 0.699655
vt 0.171631 0.750000
vt 0.138004 0.736930
vt 0.125000 0.705378
vt 0.500000 0.692859
vt 1.000000 0.500000
vt 1.000000 1.000000
vt 0.916667 1.000000
vt 0.916667 0.500000
vt 0.833333 1.000000
vt 0.833333 0.500000
vt 0.750000 1.000000
vt 0.750000 0.500000
vt 0.666667 1.000000
vt 0.666667 0.500000
vt 0.583333 1.000000
vt 0.583333 0.500000
vt 0.500000 1.000000
vt 0.500000 0.500000
vt 0.416667 1.000000
vt 0.416667 0.500000
vt 0.333333 1.000000
vt 0.333333 0.500000
vt 0.250000 1.000000
vt 0.250000 0.500000
vt 0.166667 1.000000
vt 0.166667 0.500000
vt 0.083333 1.000000
vt 0.083333 0.500000
vt 0.000000 1.000000
vt 0.000000 0.500000
vt 0.625000 0.250000
vt 0.625000 0.250000
vt 0.625000 0.500000
vt 0.625000 0.256791
vt 0.625000 0.258501
vt 0.600187 0.250000
vt 0.625000 0.217775
vt 0.625000 0.497247
vt 0.625000 0.492414
vt 0.625000 0.532225
vt 0.625000 0.498699
vt 0.625000 0.257874
vt 0.600187 0.500000
vt 0.860511 0.738612
s 1
usemtl 
f 6/1/1 30/2/1 38/3/1 4/1/1
f 31/4/2 7/5/2 3/5/2 40/6/2
f 45/7/3 39/8/3 40/6/4 47/9/4
f 29/10/5 32/11/3 39/8/3 37/10/5
f 29/12/5 37/13/5 38/3/6 30/2/6
f 48/1/1 46/1/1 10/1/1 21/1/1
f 47/5/2 49/5/2 19/5/2 11/5/2
f 28/30/20 29/12/5 30/2/6 27/20/21
f 32/11/3 33/31/22 34/32/23 31/4/4
f 33/31/22 28/33/20 27/34/21 34/32/23
f 35/35/24 36/36/25 11/6/26 10/1/27
f 50/37/5 35/35/24 10/1/27 46/1/6
f 39/8/3 32/11/3 31/4/4 40/6/4
f 6/1/1 9/20/1 27/20/1 30/2/1
f 33/31/22 32/11/3 207/11/28 208/31/28
f 9/21/29 8/23/29 34/32/29 27/34/29
f 50/38/5 45/7/3 36/36/25 35/38/24
f 8/23/2 7/5/2 31/4/2 34/32/2
f 49/5/9 52/5/9 43/5/9 19/5/9
f 48/1/9 51/1/9 42/1/9 4/1/9
f 10/1/30 44/1/30 21/1/31
f 19/5/32 43/5/30 11/5/30
f 11/5/30 43/5/30 44/1/30 10/1/30
f 21/1/9 44/1/9 51/1/9 48/1/9
f 3/5/9 41/5/9 52/5/9 49/5/9
f 40/6/2 3/5/2 47/9/2
f 37/10/5 39/8/3 45/7/3 50/38/5
f 4/1/1 38/3/1 46/1/1
f 37/13/5 50/37/5 46/1/6 38/3/6
f 3/5/2 49/5/2 47/5/2
f 4/1/1 46/1/1 48/1/1
f 36/36/25 45/7/3 47/9/4 11/6/26
f 67/1/33 64/3/34 65/42/35 68/2/36
f 68/2/36 65/42/35 63/43/37 66/44/38
f 70/45/39 61/45/40 62/46/41 71/5/42
f 71/5/42 62/46/41 60/47/43 69/5/44
f 57/1/45 67/1/33 68/2/36 59/1/46
f 59/1/46 68/2/36 66/44/38 58/48/47
f 53/39/48 70/45/39 71/5/42 56/5/49
f 56/5/49 71/5/42 69/5/44 54/6/50
f 53/39/48 58/48/47 66/44/38 70/45/39
f 54/6/50 69/5/44 52/5/2 41/5/2
f 42/1/1 51/1/1 67/1/33 57/1/45
f 60/47/30 62/46/30 61/45/30 63/43/30 65/42/30 64/3/30 44/1/30 43/5/30
f 69/5/44 60/47/43 43/5/2 52/5/2
f 70/45/39 66/44/38 63/43/37 61/45/40
f 51/1/1 44/1/1 64/3/34 67/1/33
f 29/12/5 28/30/20 205/30/28 206/12/28
f 28/33/20 33/31/22 208/31/28 205/33/28
f 32/11/3 29/10/5 206/10/28 207/11/28
usemtl Plastic
f 20/1/1 6/1/1 4/1/1
f 7/5/2 14/5/2 3/5/2
f 1/14/7 12/15/8 13/16/8 2/17/7
f 1/14/9 81/14/10 80/18/11 15/19/12
f 9/20/13 22/21/13 23/22/13 8/23/13
f 25/24/2 24/25/14 14/5/2 7/5/2 8/23/2
f 109/22/15 25/24/2 8/23/2 23/22/16
f 113/26/17 109/22/15 23/22/16 22/21/18
f 9/20/1 26/27/1 113/26/17 22/21/18
f 20/1/1 111/28/19 26/29/1 9/20/1 6/1/1
f 53/39/30 56/40/30 55/6/30
f 56/40/30 54/5/30 55/5/30
f 57/1/30 59/1/30 5/41/30
f 59/1/30 58/1/30 5/1/30
f 55/5/30 5/41/30 58/48/30 53/39/30
f 55/6/30 54/6/30 41/5/30 3/5/30
f 4/1/30 42/1/30 57/1/30 5/1/30
f 76/49/51 73/50/51 72/51/51 77/17/51
f 74/52/52 79/53/52 78/54/53 75/55/53
f 72/56/1 73/57/1 74/58/1 75/18/1 80/18/11 81/14/10
f 73/50/9 76/49/9 79/53/9 74/52/9
f 77/17/54 72/56/54 81/14/54 82/17/54
f 80/59/55 75/59/53 78/54/53 83/60/55
f 83/60/56 78/54/2 79/53/2 76/49/2 77/17/2 82/17/57
f 16/61/12 15/19/12 80/59/11 83/60/56
f 16/61/12 83/60/56 82/17/57 2/17/9
f 2/17/9 82/17/57 81/14/10 1/14/9
f 108/62/58 110/63/59 109/64/15
f 110/63/59 24/64/14 109/32/15
f 111/21/19 114/65/60 113/66/17
f 114/65/60 112/67/61 113/26/17
f 97/68/62 99/69/63 101/70/64 98/71/65
f 98/72/65 101/73/64 100/74/66 96/75/67
f 103/76/68 105/77/69 107/78/70 104/79/71
f 104/79/71 107/78/70 106/80/72 102/81/73
f 102/81/73 87/82/74 89/23/75 104/79/71
f 104/79/71 89/23/75 88/83/76 103/76/68
f 85/84/77 100/74/66 101/73/64 86/20/78
f 86/21/78 101/70/64 99/69/63 84/67/79
f 90/85/80 97/68/62 98/71/65 92/86/81
f 92/87/81 98/72/65 96/75/67 91/88/82
f 93/89/83 106/80/72 107/78/70 95/90/84
f 95/90/84 107/78/70 105/77/69 94/91/85
f 108/62/58 88/83/76 89/23/75 110/22/59
f 110/22/59 89/23/75 87/82/74 24/25/14
f 111/92/19 85/84/77 86/20/78 114/29/60
f 114/21/60 86/21/78 84/67/79 112/93/61
f 84/67/79 88/83/76 108/62/58 112/93/61
f 103/76/68 88/83/76 84/67/79 99/69/63
f 15/19/1 91/88/82 96/75/67 17/94/1 12/15/1 1/14/1
f 15/95/12 16/61/12 93/89/86 95/90/86 94/91/86 90/96/86 92/97/86 91/98/86
f 94/91/85 105/77/69 97/68/62 90/85/80
f 2/17/2 13/16/2 18/99/2 106/80/72 93/89/83 16/61/2
f 96/75/67 100/74/66 17/94/1
f 103/76/68 99/69/63 97/68/62 105/77/69
f 102/81/73 106/80/72 18/99/2
f 109/22/15 113/66/17 112/93/61 108/62/58
f 109/64/15 24/25/14 25/24/2
f 111/92/19 113/29/17 26/29/1
f 115/100/87 116/101/87 118/102/88 117/103/89
f 117/103/89 118/102/88 120/104/90 119/105/91
f 119/105/91 120/104/90 122/106/92 121/107/93
f 121/107/93 122/106/92 124/108/94 123/109/95
f 123/109/95 124/108/94 126/110/96 125/111/97
f 125/111/97 126/110/96 128/112/98 127/113/98
f 127/113/98 128/112/98 130/114/99 129/115/100
f 129/115/100 130/114/99 132/116/101 131/117/102
f 131/117/102 132/116/101 134/118/103 133/119/104
f 133/119/104 134/118/103 136/120/105 135/121/106
f 138/122/30 136/120/30 149/120/30 150/122/30
f 135/121/106 136/120/105 138/122/107 137/123/108
f 137/123/108 138/122/107 116/124/87 115/125/87
f 143/108/109 142/106/110 154/106/111 155/108/112
f 120/104/30 118/102/30 139/102/30 141/104/30
f 136/120/30 134/118/30 148/118/30 149/120/30
f 134/118/30 132/116/30 147/116/30 148/118/30
f 132/116/30 130/114/30 146/114/30 147/116/30
f 130/114/30 128/112/30 145/112/30 146/114/30
f 128/112/30 126/110/30 144/110/30 145/112/30
f 126/110/30 124/108/30 143/108/30 144/110/30
f 124/108/30 122/106/30 142/106/30 143/108/30
f 116/124/30 138/122/30 150/122/30 140/124/30
f 118/102/30 116/101/30 140/101/30 139/102/30
f 122/106/30 120/104/30 141/104/30 142/106/30
f 150/122/113 149/120/114 161/120/115 162/122/116
f 139/102/117 140/101/118 152/101/118 151/102/119
f 147/116/120 146/114/121 158/114/122 159/116/123
f 144/110/124 143/108/109 155/108/112 156/110/125
f 140/124/118 150/122/113 162/122/116 152/124/118
f 141/104/126 139/102/117 151/102/119 153/104/127
f 148/118/128 147/116/120 159/116/123 160/118/129
f 145/112/130 144/110/124 156/110/125 157/112/130
f 142/106/110 141/104/126 153/104/127 154/106/111
f 149/120/114 148/118/128 160/118/129 161/120/115
f 146/114/121 145/112/130 157/112/130 158/114/122
f 165/41/131 166/5/131 176/5/132 175/41/132
f 5/41/9 55/5/9 166/5/131 165/41/131
f 170/16/133 169/15/133 171/15/134 172/16/134
f 13/16/8 12/15/8 169/15/133 170/16/133
f 187/1/135 181/5/135 172/16/134 171/15/134
f 164/5/136 163/1/136 173/1/137 174/5/137
f 166/5/2 164/5/2 174/5/2 176/5/2
f 163/1/1 165/1/1 175/1/1 173/1/1
f 181/5/135 187/1/135 177/1/138 178/5/138
f 186/126/139 182/5/139 178/5/140 177/41/140
f 175/41/132 176/5/132 182/5/139 186/126/139
f 179/5/2 183/5/2 180/6/2 181/5/2 182/5/2
f 184/3/1 188/1/1 185/12/1 186/127/1 187/12/1
f 184/3/141 180/6/141 183/5/142 188/1/142
f 188/1/142 183/5/142 179/5/143 185/12/143
f 182/5/2 181/5/2 178/5/2
f 174/5/137 173/1/137 185/12/143 179/5/143
f 176/5/2 174/5/2 179/5/2 182/5/2
f 173/1/1 175/1/1 186/127/1 185/12/1
f 187/12/1 186/126/1 177/1/1
f 170/16/144 172/16/145 191/47/146 192/128/147
f 170/16/144 192/128/147 168/5/148
f 189/12/149 192/128/149 191/47/150 190/2/150
f 180/6/141 184/3/141 190/2/150 191/47/150
f 171/15/151 169/15/152 189/12/153 190/2/154
f 167/1/155 168/5/155 192/128/149 189/12/149
f 184/3/1 187/1/1 171/15/151 190/2/154
f 181/5/2 180/6/2 191/47/146 172/16/145
f 169/15/152 167/1/156 189/12/153
f 193/3/1 197/129/1 198/130/1 194/131/1 195/132/1 196/12/1
f 199/6/2 203/133/2 204/134/2 200/5/2 201/5/2 202/135/2
f 193/3/157 200/136/157 204/134/158 197/129/158
f 197/129/158 204/134/158 203/133/159 198/130/159
f 198/130/159 203/133/159 199/6/160 194/137/160
f 200/136/9 193/3/9 163/1/136 164/5/136
f 12/15/161 194/137/161 167/1/156 169/15/152
f 194/137/162 199/6/162 168/5/155 167/1/155
f 193/2/9 5/1/9 165/1/131 163/1/136
f 17/94/1 100/74/66 85/84/77 195/132/1 194/131/1 12/15/1
f 193/2/1 196/12/1 20/1/1 4/1/1 5/1/1
f 196/12/1 195/132/1 85/84/77 111/28/19 20/1/1
f 87/82/74 202/135/2 201/5/2 14/5/2 24/25/14
f 199/138/163 13/16/163 170/16/144 168/5/148
f 14/5/2 201/5/2 200/5/2 55/5/2 3/5/2
f 13/16/2 199/138/2 202/135/2 87/82/74 102/81/73 18/99/2
f 55/5/9 200/136/9 164/5/136 166/5/131
f 205/33/29 208/31/29 212/31/29 209/33/29
f 211/11/28 210/10/28 209/139/28 212/31/28
f 206/12/1 205/30/1 209/30/1 210/12/1
f 207/11/164 206/10/164 210/10/164 211/11/164
f 208/31/2 207/11/2 211/11/2 212/31/2
o Cube
v -0.018344 0.009676 -0.117092
v -0.018344 0.072361 -0.092808
v -0.018344 -0.004604 -0.136864
v -0.018344 0.080021 -0.112579
v 0.018344 0.009676 -0.117092
v 0.018344 0.072361 -0.092808
v 0.018344 -0.004604 -0.136864
v 0.018344 0.080021 -0.112579
vn -1.0000 -0.0000 -0.0000
vn -0.0000 0.2758 -0.9612
vn 1.0000 -0.0000 -0.0000
vn -0.0000 -0.3612 0.9325
vn -0.0000 -0.8107 0.5855
vn -0.0000 0.9325 0.3612
vt 0.375000 0.000000
vt 0.625000 0.000000
vt 0.625000 0.250000
vt 0.375000 0.250000
vt 0.625000 0.500000
vt 0.375000 0.500000
vt 0.625000 0.750000
vt 0.375000 0.750000
vt 0.625000 1.000000
vt 0.375000 1.000000
vt 0.125000 0.500000
vt 0.125000 0.750000
vt 0.875000 0.500000
vt 0.875000 0.750000
s 0
usemtl Plastic
f 213/140/165 214/141/165 216/142/165 215/143/165
f 215/143/166 216/142/166 220/144/166 219/145/166
f 219/145/167 220/144/167 218/146/167 217/147/167
f 217/147/168 218/146/168 214/148/168 213/149/168
f 215/150/169 219/145/169 217/147/169 213/151/169
f 220/144/170 216/152/170 214/153/170 218/146/170
