# Blender 4.5.5 LTS
# www.blender.org
mtllib shotgun.mtl
o Cube
v -0.060000 -0.078474 0.222503
v -0.060000 -0.100000 -0.872179
v -0.060000 -0.100000 -0.242361
v 0.060000 -0.078474 0.222503
v -0.060000 0.000000 -0.872179
v 0.060000 -0.100000 -0.242361
v -0.060000 0.000000 -0.242361
v 0.060000 0.000000 -0.242361
v -0.060000 0.051898 0.202744
v -0.060000 0.100000 0.081505
v -0.060000 0.085911 0.146077
v 0.060000 0.100000 0.081505
v 0.060000 0.051898 0.202744
v 0.060000 0.085911 0.146077
v 0.060000 -0.100000 -0.872179
v 0.060000 0.000000 -0.872179
v -0.060000 0.049048 -0.242361
v -0.060000 0.100000 -0.242361
v -0.028547 0.083448 -0.242361
v -0.045077 0.075235 -0.242361
v -0.056122 0.064028 -0.242361
v 0.060000 0.049048 -0.242361
v 0.060000 0.100000 -0.242361
v 0.056122 0.064028 -0.242361
v 0.045077 0.075235 -0.242361
v 0.028547 0.083448 -0.242361
v -0.060000 0.049048 -0.872179
v -0.056122 0.064028 -0.872179
v -0.045077 0.075235 -0.872179
v -0.028547 0.083448 -0.872179
v 0.060000 0.049048 -0.872179
v 0.028547 0.083448 -0.872179
v 0.045077 0.075235 -0.872179
v 0.056122 0.064028 -0.872179
v 0.031958 -0.005319 0.489472
v 0.031958 -0.210272 0.370612
v -0.031958 -0.210272 0.370612
v -0.031958 -0.005319 0.489472
v 0.031958 -0.015461 0.598109
v 0.031958 -0.177647 0.540476
v -0.031958 -0.177647 0.540476
v -0.031958 -0.015461 0.598109
v 0.031958 -0.052627 0.992219
v 0.031958 -0.309770 0.971122
v -0.031958 -0.309770 0.971122
v -0.031958 -0.052627 0.992219
v -0.031958 -0.009688 0.293176
v -0.060000 0.017452 0.239321
v -0.060000 -0.003856 0.230766
v 0.060000 0.017452 0.239321
v 0.031958 -0.009688 0.293176
v 0.060000 -0.003856 0.230766
v 0.031958 -0.019491 0.347599
v 0.031958 -0.020007 0.396814
v -0.031958 -0.020007 0.396814
v -0.031958 -0.019491 0.347599
v 0.031958 -0.154806 0.337875
v 0.031958 -0.117144 0.290389
v -0.031958 -0.117144 0.290389
v -0.031958 -0.154806 0.337875
v 0.000000 0.098855 -1.229500
v 0.000000 0.098855 -0.237164
v 0.014380 0.095001 -1.229500
v 0.014380 0.095001 -0.237164
v 0.024907 0.084474 -1.229500
v 0.024907 0.084474 -0.237164
v 0.028760 0.070094 -1.229500
v 0.028760 0.070094 -0.237164
v 0.024907 0.055714 -1.229500
v 0.024907 0.055714 -0.237164
v 0.014380 0.045187 -1.229500
v 0.014380 0.045187 -0.237164
v 0.000000 0.041334 -1.229500
v 0.000000 0.041334 -0.237164
v -0.014380 0.045187 -1.229500
v -0.014380 0.045187 -0.237164
v -0.024907 0.055714 -1.229500
v -0.024907 0.055714 -0.237164
v -0.028760 0.070094 -1.229500
v -0.028760 0.070094 -0.237164
v -0.024907 0.084474 -1.229500
v -0.024907 0.084474 -0.237164
v -0.014380 0.095001 -1.229500
v -0.014380 0.095001 -0.237164
v -0.000000 0.016034 -0.869161
v 0.021712 0.010216 -0.869161
v 0.037607 -0.005678 -0.869161
v 0.043425 -0.027391 -0.869161
v 0.037607 -0.049103 -0.869161
v 0.021712 -0.064998 -0.869161
v -0.000000 -0.070816 -0.869161
v -0.021712 -0.064998 -0.869161
v -0.037607 -0.049103 -0.869161
v -0.043425 -0.027391 -0.869161
v -0.037607 -0.005678 -0.869161
v -0.021712 0.010216 -0.869161
v -0.000000 0.003932 -0.956011
v -0.000000 0.016034 -0.944321
v 0.015661 -0.000265 -0.956011
v 0.021712 0.010216 -0.944321
v 0.027126 -0.011730 -0.956011
v 0.037607 -0.005678 -0.944321
v 0.031323 -0.027391 -0.956011
v 0.043425 -0.027391 -0.944321
v 0.027126 -0.043052 -0.956011
v 0.037607 -0.049103 -0.944321
v 0.015661 -0.054517 -0.956011
v 0.021712 -0.064998 -0.944321
v -0.000000 -0.058714 -0.956011
v -0.000000 -0.070816 -0.944321
v -0.015661 -0.054517 -0.956011
v -0.021712 -0.064998 -0.944321
v -0.027126 -0.043052 -0.956011
v -0.037607 -0.049103 -0.944321
v -0.031323 -0.027391 -0.956011
v -0.043425 -0.027391 -0.944321
v -0.027126 -0.011730 -0.956011
v -0.037607 -0.005678 -0.944321
v -0.015661 -0.000265 -0.956011
v -0.021712 0.010216 -0.944321
vn -0.0000 -1.0000 -0.0000
vn -0.0000 -0.9989 0.0463
vn -0.0000 -0.0000 -1.0000
vn 1.0000 -0.0000 -0.0000
vn -0.0000 0.9770 0.2132
vn -0.0000 0.8574 0.5146
vn -1.0000 -0.0000 -0.0000
vn -0.0000 1.0000 -0.0000
vn -0.4449 0.8956 -0.0000
vn -0.7122 0.7019 -0.0000
vn -0.9681 0.2506 -0.0000
vn 0.9681 0.2506 -0.0000
vn 0.7122 0.7019 -0.0000
vn 0.4449 0.8956 -0.0000
vn -0.0000 0.9957 0.0929
vn -0.0000 -0.9560 -0.2933
vn -0.0000 -0.9821 0.1886
vn -0.0000 -0.0818 0.9967
vn -0.0000 0.9956 0.0939
vn -0.9062 -0.1576 0.3924
vn 0.9062 -0.1576 0.3924
vn -0.0000 0.8930 0.4500
vn -0.0000 0.7280 0.6856
vn -0.0000 0.9999 0.0105
vn -0.0000 0.9877 -0.1566
vn -0.0000 0.9842 0.1773
vn -0.0000 -0.7835 -0.6214
vn -0.0000 -0.5083 -0.8612
vn -0.0000 -0.8689 -0.4950
vn -0.9212 -0.0236 0.3884
vn 0.9212 -0.0236 0.3884
vn 0.2588 0.9659 -0.0000
vn 0.7071 0.7071 -0.0000
vn 0.9659 0.2588 -0.0000
vn 0.9659 -0.2588 -0.0000
vn 0.7071 -0.7071 -0.0000
vn 0.2588 -0.9659 -0.0000
vn -0.2588 -0.9659 -0.0000
vn -0.7071 -0.7071 -0.0000
vn -0.9659 -0.2588 -0.0000
vn -0.9659 0.2588 -0.0000
vn -0.0000 -0.0000 1.0000
vn -0.7071 0.7071 -0.0000
vn -0.2588 0.9659 -0.0000
vn 0.1830 0.6830 -0.7071
vn 0.5000 0.5000 -0.7071
vn 0.6830 0.1830 -0.7071
vn 0.6830 -0.1830 -0.7071
vn 0.5000 -0.5000 -0.7071
vn 0.1830 -0.6830 -0.7071
vn -0.1830 -0.6830 -0.7071
vn -0.5000 -0.5000 -0.7071
vn -0.6830 -0.1830 -0.7071
vn -0.6830 0.1830 -0.7071
vn -0.5000 0.5000 -0.7071
vn -0.1830 0.6830 -0.7071
vt 0.375000 0.500000
vt 0.125000 0.500000
vt 0.375000 0.750000
vt 0.125000 0.750000
vt 0.375000 0.250000
vt 0.500000 0.250000
vt 0.500000 0.500000
vt 0.625000 0.705484
vt 0.875000 0.705484
vt 0.875000 0.750000
vt 0.612415 0.741691
vt 0.625000 1.000000
vt 0.567248 1.000000
vt 0.567248 0.750000
vt 0.669347 0.480278
vt 0.809472 0.500000
vt 0.620152 0.250000
vt 0.690528 0.500000
vt 0.606346 0.250000
vt 0.625000 0.217673
vt 0.585683 0.250000
vt 0.561311 0.250000
vt 0.561311 0.500000
vt 0.585683 0.500000
vt 0.625000 0.532327
vt 0.606346 0.500000
vt 0.625000 0.532327
vt 0.620152 0.500000
vt 0.875000 0.532327
vt 0.875000 0.500000
vt 0.625000 0.250000
vt 0.616369 0.264385
vt 0.585684 0.252432
vt 0.561311 0.250000
vt 0.561311 0.250000
vt 0.561311 0.500000
vt 0.585684 0.497568
vt 0.619386 0.490643
vt 0.625000 0.500000
vt 0.620152 0.315528
vt 0.500000 0.750000
vt 0.500000 1.000000
vt 0.500000 0.750000
vt 0.500000 0.000000
vt 0.375000 0.000000
vt 0.375000 1.000000
vt 0.525022 0.000000
vt 0.460682 0.000000
vt 0.525891 0.750000
vt 0.499014 0.750000
vt 0.500000 0.734416
vt 0.525891 1.000000
vt 0.499743 0.015323
vt 0.567248 0.000000
vt 0.607954 0.011254
vt 0.625000 0.044516
vt 0.460682 0.750000
vt 0.499693 0.750000
vt 0.500003 0.750000
vt 0.375000 0.750000
vt 0.375000 0.750000
vt 1.000000 0.500000
vt 1.000000 1.000000
vt 0.916667 1.000000
vt 0.916667 0.500000
vt 0.833333 1.000000
vt 0.833333 0.500000
vt 0.750000 1.000000
vt 0.750000 0.500000
vt 0.666667 1.000000
vt 0.666667 0.500000
vt 0.583333 1.000000
vt 0.583333 0.500000
vt 0.500000 1.000000
vt 0.500000 0.500000
vt 0.416667 1.000000
vt 0.416667 0.500000
vt 0.333333 1.000000
vt 0.333333 0.500000
vt 0.250000 1.000000
vt 0.250000 0.500000
vt 0.166667 1.000000
vt 0.166667 0.500000
vt 0.370000 0.457846
vt 0.250000 0.490000
vt 0.130000 0.457846
vt 0.042154 0.370000
vt 0.010000 0.250000
vt 0.042154 0.130000
vt 0.130000 0.042154
vt 0.250000 0.010000
vt 0.370000 0.042154
vt 0.457846 0.130000
vt 0.490000 0.250000
vt 0.457846 0.370000
vt 0.083333 1.000000
vt 0.083333 0.500000
vt 0.000000 1.000000
vt 0.000000 0.500000
vt 0.750000 0.490000
vt 0.870000 0.457846
vt 0.957846 0.370000
vt 0.990000 0.250000
vt 0.957846 0.130000
vt 0.870000 0.042154
vt 0.750000 0.010000
vt 0.630000 0.042154
vt 0.542154 0.130000
vt 0.510000 0.250000
vt 0.542154 0.370000
vt 0.630000 0.457846
vt 1.000000 0.567299
vt 0.916667 0.567299
vt 0.916667 0.500000
vt 0.988388 0.500000
vt 0.833333 0.567299
vt 0.750000 0.567299
vt 0.666667 0.567299
vt 0.583333 0.567299
vt 0.500000 0.567299
vt 0.416667 0.567299
vt 0.416667 0.500000
vt 0.333333 0.567299
vt 0.250000 0.567299
vt 0.166667 0.567299
vt 0.083333 0.567299
vt 0.083333 0.500000
vt 0.000000 0.567299
vt 0.011612 0.500000
vt 0.750000 0.423114
vt 0.836557 0.399921
vt 0.899921 0.336557
vt 0.923114 0.250000
vt 0.899921 0.163443
vt 0.836557 0.100079
vt 0.750000 0.076886
vt 0.663443 0.100079
vt 0.600079 0.163443
vt 0.576886 0.250000
vt 0.600079 0.336557
vt 0.663443 0.399921
s 0
f 6/1/1 3/2/1 2/2/1 15/1/1
f 3/2/2 6/1/2 4/3/2 1/4/2
f 2/5/3 5/6/3 16/7/3 15/1/3
f 8/7/4 6/1/4 15/1/4 16/7/4
f 12/8/5 10/9/5 11/10/5 14/11/5
f 14/11/6 11/12/6 9/13/6 13/14/6
f 3/5/7 7/6/7 5/6/7 2/5/7
f 32/15/8 30/16/8 19/17/8 26/18/8
f 19/17/3 20/19/3 18/20/3
f 20/19/3 21/21/3 18/20/3
f 21/21/3 17/22/3 18/20/3
f 22/23/3 24/24/3 23/25/3
f 24/24/3 25/26/3 23/27/3
f 25/26/3 26/28/3 23/27/3
f 19/17/3 18/29/3 23/27/3 26/28/3
f 19/16/9 30/16/9 29/30/9 20/30/9
f 20/31/10 29/32/10 28/33/10 21/21/10
f 21/21/11 28/33/11 27/34/11 17/35/11
f 22/23/12 31/36/12 34/37/12 24/24/12
f 24/24/13 34/37/13 33/38/13 25/39/13
f 25/39/14 33/38/14 32/15/14 26/18/14
f 23/25/8 18/29/8 10/9/8 12/8/8
f 7/6/7 17/35/7 27/34/7 5/6/7
f 22/23/4 8/7/4 16/7/4 31/36/4
f 5/6/3 27/34/3 28/33/3 29/32/3 30/40/3 32/15/3 33/38/3 34/37/3 31/36/3 16/7/3
f 35/41/15 38/42/15 42/42/15 39/43/15
f 41/4/16 40/3/16 44/3/16 45/4/16
f 37/4/17 36/3/17 40/3/17 41/4/17
f 38/44/7 37/45/7 41/45/7 42/44/7
f 36/3/4 35/41/4 39/43/4 40/3/4
f 44/3/18 43/41/18 46/42/18 45/46/18
f 42/44/7 41/45/7 45/45/7 46/44/7
f 40/3/4 39/43/4 43/41/4 44/3/4
f 39/43/19 42/42/19 46/42/19 43/41/19
f 47/44/20 48/47/20 49/48/20
f 50/49/21 51/50/21 52/51/21
f 50/49/22 48/52/22 47/42/22 51/50/22
f 1/45/7 49/53/7 7/6/7 3/5/7
f 49/53/7 48/47/7 9/54/7 11/55/7 10/56/7 18/20/7 17/35/7 7/6/7
f 50/49/23 13/14/23 9/13/23 48/52/23
f 6/1/4 8/7/4 52/57/4 4/3/4
f 8/7/4 22/23/4 23/25/4 12/8/4 14/11/4 13/14/4 50/49/4 52/51/4
f 53/58/24 56/42/24 55/42/24 54/59/24
f 54/59/25 55/42/25 38/42/25 35/41/25
f 51/50/26 47/42/26 56/42/26 53/58/26
f 59/4/27 58/60/27 57/61/27 60/4/27
f 60/4/28 57/61/28 36/3/28 37/4/28
f 1/4/29 4/3/29 58/60/29 59/4/29
f 1/4/30 59/4/30 47/44/30 49/48/30
f 51/50/31 58/60/31 4/3/31 52/51/31
f 58/60/4 51/50/4 53/58/4 57/61/4
f 54/59/4 36/3/4 57/61/4 53/58/4
f 36/3/4 54/59/4 35/41/4
f 59/4/7 60/4/7 56/42/7 47/42/7
f 56/42/7 60/4/7 37/4/7 55/42/7
f 37/4/7 38/42/7 55/42/7
f 61/62/32 62/63/32 64/64/32 63/65/32
f 63/65/33 64/64/33 66/66/33 65/67/33
f 65/67/34 66/66/34 68/68/34 67/69/34
f 67/69/35 68/68/35 70/70/35 69/71/35
f 69/71/36 70/70/36 72/72/36 71/73/36
f 71/73/37 72/72/37 74/74/37 73/75/37
f 73/75/38 74/74/38 76/76/38 75/77/38
f 75/77/39 76/76/39 78/78/39 77/79/39
f 77/79/40 78/78/40 80/80/40 79/81/40
f 79/81/41 80/80/41 82/82/41 81/83/41
f 64/84/42 62/85/42 84/86/42 82/87/42 80/88/42 78/89/42 76/90/42 74/91/42 72/92/42 70/93/42 68/94/42 66/95/42
f 81/83/43 82/82/43 84/96/43 83/97/43
f 83/97/44 84/96/44 62/98/44 61/99/44
f 61/100/3 63/101/3 65/102/3 67/103/3 69/104/3 71/105/3 73/106/3 75/107/3 77/108/3 79/109/3 81/110/3 83/111/3
f 98/112/45 100/113/45 99/114/45 97/115/45
f 100/113/46 102/116/46 101/67/46 99/114/46
f 102/116/47 104/117/47 103/69/47 101/67/47
f 104/117/48 106/118/48 105/71/48 103/69/48
f 106/118/49 108/119/49 107/73/49 105/71/49
f 108/119/50 110/120/50 109/75/50 107/73/50
f 110/120/51 112/121/51 111/122/51 109/75/51
f 112/121/52 114/123/52 113/79/52 111/122/52
f 114/123/53 116/124/53 115/81/53 113/79/53
f 116/124/54 118/125/54 117/83/54 115/81/54
f 118/125/55 120/126/55 119/127/55 117/83/55
f 120/126/56 98/128/56 97/129/56 119/127/56
f 97/130/3 99/131/3 101/132/3 103/133/3 105/134/3 107/135/3 109/136/3 111/137/3 113/138/3 115/139/3 117/140/3 119/141/3
f 98/112/32 85/63/32 86/64/32 100/113/32
f 120/126/44 96/96/44 85/98/44 98/128/44
f 100/113/33 86/64/33 87/66/33 102/116/33
f 102/116/34 87/66/34 88/68/34 104/117/34
f 104/117/35 88/68/35 89/70/35 106/118/35
f 106/118/36 89/70/36 90/72/36 108/119/36
f 108/119/37 90/72/37 91/74/37 110/120/37
f 110/120/38 91/74/38 92/76/38 112/121/38
f 112/121/39 92/76/39 93/78/39 114/123/39
f 114/123/40 93/78/40 94/80/40 116/124/40
f 116/124/41 94/80/41 95/82/41 118/125/41
f 118/125/43 95/82/43 96/96/43 120/126/43
