# Blender 4.5.5 LTS
# www.blender.org
mtllib shotgun_round.mtl
o Shell
v 0.005955 -0.054851 0.022225
v 0.016270 -0.054851 0.016269
v 0.022224 -0.054851 0.005955
v 0.022224 -0.054851 -0.005955
v 0.016270 -0.054851 -0.016269
v 0.005955 -0.054851 -0.022224
v -0.005955 -0.054851 -0.022224
v -0.016270 -0.054851 -0.016270
v -0.022224 -0.054851 -0.005955
v -0.022224 -0.054851 0.005955
v -0.016270 -0.054851 0.016269
v -0.005955 -0.054851 0.022225
v 0.005955 0.054851 0.022225
v 0.016270 0.054851 0.016269
v 0.022224 0.054851 0.005955
v 0.022224 0.054851 -0.005955
v 0.016270 0.054851 -0.016269
v 0.005955 0.054851 -0.022224
v -0.005955 0.054851 -0.022224
v -0.016270 0.054851 -0.016270
v -0.022224 0.054851 -0.005955
v -0.022224 0.054851 0.005955
v -0.016270 0.054851 0.016269
v -0.005955 0.054851 0.022225
v 0.006551 -0.054851 0.024447
v 0.017897 -0.054851 0.017896
v 0.024446 -0.054851 0.006551
v 0.024446 -0.054851 -0.006551
v 0.017897 -0.054851 -0.017896
v 0.006551 -0.054851 -0.024447
v -0.006551 -0.054851 -0.024447
v -0.017897 -0.054851 -0.017897
v -0.024446 -0.054851 -0.006551
v -0.024446 -0.054851 0.006551
v -0.017897 -0.054851 0.017896
v -0.006551 -0.054851 0.024447
v 0.006551 -0.056851 0.024447
v 0.017897 -0.056851 0.017896
v 0.024446 -0.056851 0.006551
v 0.024446 -0.056851 -0.006551
v 0.017897 -0.056851 -0.017896
v 0.006551 -0.056851 -0.024447
v -0.006551 -0.056851 -0.024447
v -0.017897 -0.056851 -0.017897
v -0.024446 -0.056851 -0.006551
v -0.024446 -0.056851 0.006551
v -0.017897 -0.056851 0.017896
v -0.006551 -0.056851 0.024447
vn 0.3437 -0.0000 0.9391
vn 0.2588 -0.0000 0.9659
vn 0.7071 -0.0000 0.7071
vn 0.9659 -0.0000 0.2588
vn 0.9659 -0.0000 -0.2588
vn 0.7071 -0.0000 -0.7071
vn 0.2588 -0.0000 -0.9659
vn -0.2588 -0.0000 -0.9659
vn -0.7071 -0.0000 -0.7071
vn -0.9659 -0.0000 -0.2588
vn -0.9659 -0.0000 0.2588
vn -0.7071 -0.0000 0.7071
vn -0.2588 -0.0000 0.9659
vn -0.3437 -0.0000 0.9391
vn -0.0801 0.9968 -0.0000
vn -0.0000 1.0000 -0.0000
vn 0.0801 0.9968 -0.0000
vn 0.5354 0.6532 -0.5354
vn 0.1960 0.6532 -0.7314
vn 0.7314 0.6532 -0.1959
vn 0.7314 0.6532 0.1959
vn -0.1960 0.6532 0.7314
vn 0.1960 0.6532 0.7314
vn -0.5354 0.6532 0.5354
vn 0.5354 0.6532 0.5354
vn -0.7314 0.6532 0.1959
vn -0.7314 0.6532 -0.1959
vn -0.5354 0.6532 -0.5354
vn -0.1960 0.6532 -0.7314
vn -0.0000 -1.0000 -0.0000
vt 0.000136 0.430044
vt 0.660108 0.430044
vt 0.660108 0.501696
vt 0.000136 0.501696
vt 0.660108 0.573346
vt 0.000136 0.573346
vt 0.660108 0.644999
vt 0.000136 0.644999
vt 0.660108 0.716644
vt 0.000136 0.716645
vt 0.660108 0.788296
vt 0.000136 0.788296
vt 0.660108 0.859950
vt 0.000136 0.859950
vt 0.000136 0.000136
vt 0.660108 0.000136
vt 0.660108 0.071786
vt 0.000136 0.071786
vt 0.660108 0.143435
vt 0.000136 0.143435
vt 0.660108 0.215089
vt 0.000136 0.215089
vt 0.660108 0.286738
vt 0.000136 0.286738
vt 0.660108 0.358390
vt 0.000136 0.358390
vt 0.900691 0.731709
vt 0.962743 0.767536
vt 0.998565 0.829588
vt 0.998565 0.901242
vt 0.962743 0.963289
vt 0.900691 0.999116
vt 0.829037 0.999116
vt 0.766985 0.963294
vt 0.731163 0.901242
vt 0.731163 0.829588
vt 0.766985 0.767536
vt 0.829037 0.731709
vt 0.787229 0.336198
vt 0.706280 0.290174
vt 0.719963 0.277398
vt 0.791845 0.320073
vt 0.682403 0.202902
vt 0.683768 0.124395
vt 0.696041 0.127809
vt 0.695229 0.199682
vt 0.666237 0.206527
vt 0.791380 0.001084
vt 0.884114 0.001084
vt 0.878635 0.018852
vt 0.795695 0.017456
vt 0.669650 0.120192
vt 0.959958 0.053295
vt 0.947340 0.064066
vt 0.713934 0.046446
vt 0.725257 0.058126
vt 0.995361 0.132461
vt 0.980998 0.135890
vt 0.999320 0.218440
vt 0.983370 0.214546
vt 0.955523 0.298005
vt 0.942954 0.284947
vt 0.875286 0.337469
vt 0.871921 0.322690
vt 0.798847 0.030503
vt 0.874688 0.031690
vt 0.937567 0.072846
vt 0.968472 0.139075
vt 0.970672 0.211603
vt 0.933571 0.275561
vt 0.868799 0.309988
vt 0.795420 0.307182
vt 0.729803 0.267865
vt 0.734345 0.067672
s 1
usemtl Material.001
f 13/1/1 1/2/2 2/3/3 14/4/3
f 14/4/3 2/3/3 3/5/4 15/6/4
f 15/6/4 3/5/4 4/7/5 16/8/5
f 16/8/5 4/7/5 5/9/6 17/10/6
f 17/10/6 5/9/6 6/11/7 18/12/7
f 18/12/7 6/11/7 7/13/8 19/14/8
f 19/15/8 7/16/8 8/17/9 20/18/9
f 20/18/9 8/17/9 9/19/10 21/20/10
f 21/20/10 9/19/10 10/21/11 22/22/11
f 22/22/11 10/21/11 11/23/12 23/24/12
f 23/24/12 11/23/12 12/25/13 24/26/14
f 24/26/14 12/25/13 1/2/2 13/1/1
f 13/27/15 14/28/16 15/29/16 16/30/16 17/31/16 18/32/16 19/33/16 20/34/16 21/35/16 22/36/16 23/37/16 24/38/17
f 6/39/16 5/40/16 29/41/18 30/42/19
f 28/43/20 27/44/21 39/45/4 40/46/5
f 5/40/16 4/47/16 28/43/20 29/41/18
f 1/48/16 12/49/16 36/50/22 25/51/23
f 4/47/16 3/52/16 27/44/21 28/43/20
f 12/49/16 11/53/16 35/54/24 36/50/22
f 3/52/16 2/55/16 26/56/25 27/44/21
f 11/53/16 10/57/16 34/58/26 35/54/24
f 2/55/16 1/48/16 25/51/23 26/56/25
f 10/57/16 9/59/16 33/60/27 34/58/26
f 9/59/16 8/61/16 32/62/28 33/60/27
f 8/61/16 7/63/16 31/64/29 32/62/28
f 7/63/16 6/39/16 30/42/19 31/64/29
f 37/65/30 48/66/30 47/67/30 46/68/30 45/69/30 44/70/30 43/71/30 42/72/30 41/73/30 40/46/30 39/45/30 38/74/30
f 35/54/24 34/58/26 46/68/11 47/67/12
f 32/62/28 31/64/29 43/71/8 44/70/9
f 29/41/18 28/43/20 40/46/5 41/73/6
f 36/50/22 35/54/24 47/67/12 48/66/13
f 26/56/25 25/51/23 37/65/2 38/74/3
f 33/60/27 32/62/28 44/70/9 45/69/10
f 30/42/19 29/41/18 41/73/6 42/72/7
f 25/51/23 36/50/22 48/66/13 37/65/2
f 27/44/21 26/56/25 38/74/3 39/45/4
f 34/58/26 33/60/27 45/69/10 46/68/11
f 31/64/29 30/42/19 42/72/7 43/71/8
