# Blender 4.5.5 LTS
# www.blender.org
mtllib pistol.mtl
o Cube.001
v -0.043029 -0.187329 -0.051902
v -0.043029 0.049911 -0.085054
v 0.043029 -0.187329 -0.051902
v 0.043029 0.049911 -0.085054
v 0.043029 0.101008 -0.314771
v -0.043029 0.101008 -0.314771
v -0.043029 0.115632 -0.314771
v 0.043029 0.115632 -0.314771
v -0.043029 0.049911 -0.314771
v -0.043029 0.115632 -0.069826
v 0.043029 0.115632 -0.069826
v 0.043029 0.115632 0.153472
v -0.043029 0.115632 0.153472
v -0.043029 0.115632 -0.444241
v 0.043029 0.115632 -0.444242
v -0.043029 -0.017866 -0.064706
v 0.043029 -0.017866 -0.064706
v 0.043029 0.101008 -0.069826
v -0.043029 -0.187329 0.116885
v 0.043029 -0.187329 0.116885
v -0.043029 -0.068709 0.102178
v 0.043029 -0.068709 0.102178
v 0.043029 0.101008 -0.444241
v -0.043029 0.101008 -0.069826
v -0.043029 0.101008 -0.444241
v -0.043029 0.101008 0.168727
v 0.043029 0.101008 0.168727
v 0.043029 0.101008 0.129930
v 0.043029 0.111445 0.150427
v -0.043029 0.111445 0.150427
v -0.043029 0.174934 0.153472
v -0.038041 0.185105 0.143301
v -0.038041 0.185105 -0.069826
v -0.043029 0.174934 -0.069826
v 0.043029 0.174934 -0.069826
v 0.038041 0.185105 -0.069826
v 0.038041 0.185105 0.143301
v 0.043029 0.174934 0.153472
v -0.038041 0.185105 -0.434070
v -0.043029 0.174934 -0.444241
v 0.038041 0.185105 -0.434070
v 0.043029 0.174934 -0.444241
v -0.038041 0.185105 -0.308117
v -0.043029 0.174934 -0.314771
v 0.038041 0.185105 -0.308117
v 0.043029 0.174934 -0.314771
v 0.035706 0.101008 -0.314771
v -0.035706 0.101008 -0.314771
v 0.035706 0.101008 -0.444242
v -0.035706 0.101008 -0.444242
v 0.038041 0.185105 -0.420686
v -0.043029 0.174934 -0.430484
v 0.043029 0.115632 -0.430484
v -0.043029 0.115632 -0.430484
v -0.043029 0.101008 -0.430484
v 0.043029 0.101008 -0.430484
v -0.038041 0.185105 -0.420686
v 0.043029 0.174934 -0.430484
v -0.035706 0.101008 -0.430484
v 0.035706 0.101008 -0.430484
v 0.023680 0.059606 -0.314771
v 0.035706 0.084811 -0.314771
v 0.043027 0.049913 -0.314771
v 0.032184 0.066988 -0.314771
v -0.035706 0.084811 -0.314771
v -0.023680 0.059606 -0.314771
v -0.032184 0.066989 -0.314771
v 0.035706 0.079979 -0.444242
v 0.023680 0.054717 -0.444242
v 0.032184 0.062116 -0.444242
v -0.023680 0.054717 -0.444242
v -0.035706 0.079979 -0.444242
v -0.032184 0.062116 -0.444242
v -0.023680 0.059606 -0.430484
v -0.035706 0.084838 -0.430484
v -0.032184 0.066996 -0.430484
v 0.035706 0.084838 -0.430484
v 0.023680 0.059606 -0.430484
v 0.032184 0.066996 -0.430484
v -0.033605 -0.206581 -0.049407
v -0.033605 -0.219243 -0.045333
v -0.033605 -0.219243 0.106525
v -0.033605 -0.203828 0.113673
v 0.033605 -0.219243 -0.045333
v 0.033605 -0.206581 -0.049407
v 0.033605 -0.203828 0.113673
v 0.033605 -0.219243 0.106525
v -0.033605 -0.187329 0.108555
v -0.033605 -0.187329 -0.037463
v 0.033605 -0.187329 -0.037463
v 0.033605 -0.187329 0.108555
v -0.028958 0.049911 0.105675
v -0.043029 0.049911 0.081993
v -0.038908 0.049911 0.098738
v 0.043029 0.049911 0.081993
v 0.028958 0.049911 0.105675
v 0.038908 0.049911 0.098738
v -0.028958 -0.144888 0.156240
v -0.043029 -0.182505 0.121359
v -0.038908 -0.155906 0.146024
v 0.043029 -0.182505 0.121359
v 0.028958 -0.144888 0.156240
v 0.038908 -0.155906 0.146024
v -0.043029 -0.078905 0.113174
v -0.028958 -0.116878 0.154124
v -0.038908 -0.105756 0.142130
v -0.028958 -0.016491 0.119357
v -0.043029 -0.059153 0.105322
v -0.038908 -0.028986 0.115246
v 0.043029 -0.059153 0.105322
v 0.028958 -0.016491 0.119357
v 0.038908 -0.028986 0.115246
v 0.028958 -0.116878 0.154124
v 0.043029 -0.078905 0.113174
v 0.038908 -0.105756 0.142130
v 0.028958 0.090570 0.135245
v 0.043029 0.101006 0.155738
v 0.038908 0.093627 0.133689
v -0.043029 0.101008 0.129930
v -0.028958 0.090570 0.135245
v -0.043029 0.101006 0.155738
v -0.038908 0.093627 0.133689
v -0.000000 0.118333 -0.404201
v -0.000000 0.118333 -0.451911
v 0.011928 0.121529 -0.404201
v 0.011928 0.121529 -0.451911
v 0.020659 0.130260 -0.404201
v 0.020659 0.130260 -0.451911
v 0.023855 0.142188 -0.404201
v 0.023855 0.142188 -0.451911
v 0.020659 0.154116 -0.404201
v 0.020659 0.154116 -0.451911
v 0.011928 0.162847 -0.404201
v 0.011928 0.162847 -0.451911
v -0.000000 0.166043 -0.404201
v -0.000000 0.166043 -0.451911
v -0.011928 0.162847 -0.404201
v -0.011928 0.162847 -0.451911
v -0.020659 0.154116 -0.404201
v -0.020659 0.154116 -0.451911
v -0.023855 0.142188 -0.404201
v -0.023855 0.142188 -0.451911
v -0.020659 0.130260 -0.404201
v -0.020659 0.130260 -0.451911
v -0.011928 0.121529 -0.404201
v -0.011928 0.121529 -0.451911
v 0.006872 0.130286 -0.451911
v 0.000000 0.128444 -0.451911
v 0.011903 0.135316 -0.451911
v 0.013744 0.142188 -0.451911
v 0.011903 0.149060 -0.451911
v 0.006872 0.154091 -0.451911
v 0.000000 0.155932 -0.451911
v -0.006872 0.154091 -0.451911
v -0.011903 0.149060 -0.451911
v -0.013744 0.142188 -0.451911
v -0.011903 0.135316 -0.451911
v -0.006872 0.130286 -0.451911
v 0.006872 0.130286 -0.430772
v 0.000000 0.128444 -0.430772
v 0.011903 0.135316 -0.430772
v 0.013744 0.142188 -0.430772
v 0.011903 0.149060 -0.430772
v 0.006872 0.154091 -0.430772
v 0.000000 0.155932 -0.430772
v -0.006872 0.154091 -0.430772
v -0.011903 0.149060 -0.430772
v -0.013744 0.142188 -0.430772
v -0.011903 0.135316 -0.430772
v -0.006872 0.130286 -0.430772
vn -0.0000 -0.1825 -0.9832
vn -0.0000 -0.2875 -0.9578
vn -1.0000 -0.0000 -0.0000
vn -0.9800 0.1990 -0.0000
vn 0.9800 0.1990 -0.0000
vn 1.0000 -0.0000 -0.0000
vn 0.6453 0.7639 -0.0000
vn -0.6453 0.7639 -0.0000
vn -0.0000 -0.0753 -0.9972
vn -0.0000 -1.0000 -0.0000
vn -0.6771 -0.7359 -0.0000
vn -0.6294 -0.7771 -0.0000
vn -0.0000 -0.9165 0.4000
vn -0.0000 0.7219 0.6920
vn 0.9907 -0.1251 0.0534
vn 0.9193 -0.3893 0.0573
vn 0.7045 -0.7097 0.0001
vn -0.9193 -0.3893 0.0573
vn -0.7045 -0.7097 0.0001
vn -0.9907 -0.1251 0.0534
vn -0.5401 0.7988 0.2649
vn -0.8680 0.2560 0.4256
vn 0.5401 0.7988 0.2649
vn 0.8680 0.2560 0.4256
vn -0.0000 0.7071 -0.7071
vn -0.0000 0.2880 -0.9576
vn -0.7112 0.7030 -0.0000
vn -0.9893 0.1459 -0.0000
vn -0.8979 -0.0000 0.4403
vn 0.8979 -0.0000 0.4403
vn 0.7112 0.7030 -0.0000
vn 0.9893 0.1459 -0.0000
vn -0.0000 -0.0000 -1.0000
vn -0.0001 -0.0000 -1.0000
vn 0.0001 -0.0000 -1.0000
vn -0.9964 -0.0843 0.0132
vn -0.9926 -0.1145 0.0405
vn -0.8695 -0.4654 0.1651
vn -0.9095 -0.4095 0.0712
vn -0.3524 -0.8819 0.3133
vn -0.3869 -0.9081 0.1600
vn 0.3869 -0.9081 0.1600
vn 0.3524 -0.8819 0.3133
vn 0.8695 -0.4654 0.1651
vn 0.9095 -0.4095 0.0712
vn 0.9926 -0.1145 0.0405
vn 0.9964 -0.0843 0.0132
vn -0.9955 -0.0946 -0.0000
vn -0.9012 -0.4333 -0.0000
vn -0.3843 -0.9232 -0.0000
vn 0.3843 -0.9232 -0.0000
vn 0.9012 -0.4333 -0.0000
vn 0.9955 -0.0946 -0.0000
vn -0.0000 -0.3063 -0.9519
vn -0.0000 -0.4207 0.9072
vn -0.0000 -0.0667 0.9978
vn -0.0000 0.5272 -0.8498
vn -0.0000 0.2963 0.9551
vn 0.6294 -0.7771 -0.0000
vn 0.6771 -0.7359 -0.0000
vn 0.1498 -0.7690 0.6215
vn 0.7609 -0.5660 0.3172
vn -0.7609 -0.5660 0.3172
vn -0.1498 -0.7690 0.6215
vn -0.4244 0.1670 0.8899
vn -0.3293 0.2422 0.9126
vn -0.8805 0.1269 0.4568
vn -0.9054 0.0948 0.4138
vn -0.9949 0.0314 0.0960
vn -0.9944 0.0312 0.1013
vn 0.3293 0.2422 0.9126
vn 0.4244 0.1670 0.8899
vn 0.9054 0.0948 0.4138
vn 0.8805 0.1269 0.4568
vn 0.9944 0.0312 0.1013
vn 0.9949 0.0314 0.0960
vn 0.9961 -0.0203 0.0860
vn 0.8756 -0.1363 0.4634
vn 0.2922 -0.2185 0.9311
vn -0.9961 -0.0203 0.0860
vn -0.8756 -0.1363 0.4634
vn -0.2922 -0.2185 0.9311
vn -0.5052 0.0656 0.8605
vn -0.9566 0.0225 0.2905
vn -0.9992 0.0031 0.0399
vn 0.9992 0.0031 0.0399
vn 0.9566 0.0225 0.2905
vn 0.5052 0.0656 0.8605
vn -0.0000 -0.6799 0.7333
vn 0.5244 -0.8515 -0.0000
vn 0.8899 -0.4561 -0.0000
vn 0.8899 0.4561 -0.0000
vn 0.5244 0.8515 -0.0000
vn -0.0000 1.0000 -0.0000
vn -0.5244 0.8515 -0.0000
vn -0.8899 0.4561 -0.0000
vn -0.8899 -0.4561 -0.0000
vn -0.5244 -0.8515 -0.0000
vt 0.553578 0.250000
vt 0.625000 0.250000
vt 0.625000 0.500000
vt 0.553578 0.500000
vt 0.625000 0.250000
vt 0.625000 0.250000
vt 0.625000 0.500000
vt 0.625000 0.500000
vt 0.638972 0.499483
vt 0.639138 0.499649
vt 0.625000 0.500000
vt 0.860511 0.500000
vt 0.639489 0.500000
vt 0.625000 0.250000
vt 0.625000 0.252931
vt 0.375000 0.250000
vt 0.375000 0.500000
vt 0.375000 0.000000
vt 0.375000 0.050345
vt 0.625000 0.000000
vt 0.625000 1.000000
vt 0.625000 0.750000
vt 0.625000 0.750000
vt 0.625000 0.750000
vt 0.625000 0.734828
vt 0.625000 1.000000
vt 0.625000 0.286304
vt 0.625000 0.015172
vt 0.625000 0.000000
vt 0.625000 0.011388
vt 0.638596 0.740207
vt 0.625000 0.750000
vt 0.625000 0.985511
vt 0.625000 1.000000
vt 0.625000 0.254480
vt 0.638952 0.499463
vt 0.625000 0.254316
vt 0.860511 0.738612
vt 0.860511 0.500000
vt 0.625000 0.457899
vt 0.625000 0.487669
vt 0.625000 0.250000
vt 0.625000 0.261369
vt 0.625000 0.292101
vt 0.625000 0.292101
vt 0.625000 0.457899
vt 0.625000 0.488631
vt 0.625000 0.500000
vt 0.625000 0.292101
vt 0.375000 0.516973
vt 0.125000 0.516973
vt 0.125000 0.500000
vt 0.125000 0.733027
vt 0.375000 0.733027
vt 0.375000 0.750000
vt 0.125000 0.750000
vt 0.375000 0.250000
vt 0.375000 0.233027
vt 0.375000 0.016973
vt 0.375000 1.000000
vt 0.375000 0.750000
vt 0.375000 0.699655
vt 0.625000 0.790875
vt 0.625000 0.761972
vt 0.625000 0.750000
vt 0.625000 0.988028
vt 0.625000 1.000000
vt 0.625000 0.959125
vt 0.448331 0.959125
vt 0.547620 0.959125
vt 0.542168 1.000000
vt 0.458496 1.000000
vt 0.453465 0.000073
vt 0.540256 0.001575
vt 0.508009 0.046983
vt 0.489255 0.045046
vt 0.547620 0.790875
vt 0.444589 0.790875
vt 0.450778 0.750000
vt 0.542691 0.750000
vt 0.488078 0.704954
vt 0.508715 0.703316
vt 0.625000 0.718959
vt 0.625000 0.790875
vt 0.625000 0.031041
vt 0.418167 0.959125
vt 0.419723 1.000000
vt 0.419723 0.000000
vt 0.380084 0.044622
vt 0.379002 0.705378
vt 0.393554 0.740172
vt 0.378629 0.762770
vt 0.625000 0.015172
vt 0.625000 0.959125
vt 0.500000 0.057141
vt 0.500000 0.692859
vt 0.125000 0.699655
vt 0.171631 0.750000
vt 0.138004 0.736930
vt 0.125000 0.705378
vt 1.000000 0.500000
vt 1.000000 1.000000
vt 0.916667 1.000000
vt 0.916667 0.500000
vt 0.833333 1.000000
vt 0.833333 0.500000
vt 0.750000 1.000000
vt 0.750000 0.500000
vt 0.666667 1.000000
vt 0.666667 0.500000
vt 0.583333 1.000000
vt 0.583333 0.500000
vt 0.500000 1.000000
vt 0.500000 0.500000
vt 0.416667 1.000000
vt 0.416667 0.500000
vt 0.333333 1.000000
vt 0.333333 0.500000
vt 0.250000 1.000000
vt 0.250000 0.500000
vt 0.166667 1.000000
vt 0.166667 0.500000
vt 0.083333 1.000000
vt 0.083333 0.500000
vt 0.000000 1.000000
vt 0.000000 0.500000
s 1
usemtl 
f 10/2/3 34/5/4 44/6/4 7/2/3
f 35/7/5 11/3/6 8/3/6 46/8/5
f 51/9/7 45/10/7 46/8/5 58/11/5
f 33/12/8 36/13/7 45/10/7 43/12/8
f 33/14/8 43/15/8 44/6/4 34/5/4
f 55/2/3 54/2/3 14/2/3 25/2/3
f 53/3/6 56/3/6 23/3/6 15/3/6
f 32/30/21 33/14/8 34/5/4 31/20/22
f 36/13/7 37/31/23 38/32/24 35/7/5
f 37/31/23 32/33/21 31/34/22 38/32/24
f 39/35/25 41/36/25 42/8/26 40/2/26
f 57/37/8 39/35/27 40/2/28 52/2/4
f 45/10/7 36/13/7 35/7/5 46/8/5
f 10/2/3 13/20/29 31/20/22 34/5/4
f 36/13/7 33/12/8 32/38/21 37/31/23
f 13/21/29 12/23/30 38/32/24 31/34/22
f 54/2/3 52/2/4 40/2/28 14/2/3
f 57/39/8 51/9/7 41/36/31 39/39/27
f 58/11/5 53/3/6 15/3/6 42/8/32
f 12/23/30 11/3/6 35/7/5 38/32/24
f 15/3/33 14/2/33 40/2/26 42/8/26
f 56/3/10 60/3/10 49/3/10 23/3/10
f 55/2/10 59/2/10 48/2/10 6/2/10
f 14/2/33 50/2/33 25/2/34
f 23/3/35 49/3/33 15/3/33
f 15/3/33 49/3/33 50/2/33 14/2/33
f 25/2/10 50/2/10 59/2/10 55/2/10
f 5/3/10 47/3/10 60/3/10 56/3/10
f 46/8/5 8/3/6 53/3/6 58/11/5
f 43/12/8 45/10/7 51/9/7 57/39/8
f 7/2/3 44/6/4 52/2/4 54/2/3
f 43/15/8 57/37/8 52/2/4 44/6/4
f 8/3/6 5/3/6 56/3/6 53/3/6
f 6/2/3 7/2/3 54/2/3 55/2/3
f 41/36/31 51/9/7 58/11/5 42/8/32
f 75/2/36 72/6/37 73/43/38 76/5/39
f 76/5/39 73/43/38 71/44/40 74/45/41
f 78/46/42 69/46/43 70/47/44 79/3/45
f 79/3/45 70/47/44 68/48/46 77/3/47
f 65/2/48 75/2/36 76/5/39 67/2/49
f 67/2/49 76/5/39 74/45/41 66/49/50
f 61/40/51 78/46/42 79/3/45 64/3/52
f 64/3/52 79/3/45 77/3/47 62/8/53
f 61/40/51 66/49/50 74/45/41 78/46/42
f 62/8/53 77/3/47 60/3/6 47/3/6
f 48/2/3 59/2/3 75/2/36 65/2/48
f 68/48/33 70/47/33 69/46/33 71/44/33 73/43/33 72/6/33 50/2/33 49/3/33
f 77/3/47 68/48/46 49/3/6 60/3/6
f 78/46/42 74/45/41 71/44/40 69/46/43
f 59/2/3 50/2/3 72/6/37 75/2/36
usemtl Plastic
f 16/1/1 2/2/2 4/3/2 17/4/1
f 24/2/3 10/2/3 7/2/3 6/2/3
f 2/2/3 24/2/3 6/2/3 9/2/3
f 11/3/6 18/3/6 5/3/6 8/3/6
f 1/16/9 16/1/1 17/4/1 3/17/9
f 1/16/10 89/16/11 88/18/12 19/19/13
f 13/20/14 26/21/14 27/22/14 12/23/14
f 29/24/6 28/25/15 18/3/6 11/3/6 12/23/6
f 117/22/16 29/24/6 12/23/6 27/22/17
f 121/26/18 117/22/16 27/22/17 26/21/19
f 13/20/3 30/27/3 121/26/18 26/21/19
f 24/2/3 119/28/20 30/29/3 13/20/3 10/2/3
f 18/3/6 4/3/6 63/3/6 5/3/6
f 4/3/10 2/2/10 9/2/10 63/3/10
f 61/40/33 64/41/33 63/8/33
f 64/41/33 62/3/33 63/3/33
f 65/2/33 67/2/33 9/42/33
f 67/2/33 66/2/33 9/2/33
f 63/3/33 9/42/33 66/49/33 61/40/33
f 63/8/33 62/8/33 47/3/33 5/3/33
f 6/2/33 48/2/33 65/2/33 9/2/33
f 84/50/54 81/51/54 80/52/54 85/17/54
f 82/53/55 87/54/55 86/55/56 83/56/56
f 80/57/3 81/58/3 82/59/3 83/18/3 88/18/12 89/16/11
f 81/51/10 84/50/10 87/54/10 82/53/10
f 85/17/57 80/57/57 89/16/57 90/17/57
f 88/60/58 83/60/56 86/55/56 91/61/58
f 91/61/59 86/55/6 87/54/6 84/50/6 85/17/6 90/17/60
f 20/62/13 19/19/13 88/60/12 91/61/59
f 20/62/13 91/61/59 90/17/60 3/17/10
f 3/17/10 90/17/60 89/16/11 1/16/10
f 116/63/61 118/64/62 117/65/16
f 118/64/62 28/65/15 117/32/16
f 119/21/20 122/66/63 121/67/18
f 122/66/63 120/68/64 121/26/18
f 105/69/65 107/70/66 109/71/67 106/72/68
f 106/73/68 109/74/67 108/75/69 104/76/70
f 111/77/71 113/78/72 115/79/73 112/80/74
f 112/80/74 115/79/73 114/81/75 110/82/76
f 110/82/76 95/83/77 97/23/78 112/80/74
f 112/80/74 97/23/78 96/84/79 111/77/71
f 93/85/80 108/75/69 109/74/67 94/20/81
f 94/21/81 109/71/67 107/70/66 92/68/82
f 98/86/83 105/69/65 106/72/68 100/87/84
f 100/88/84 106/73/68 104/76/70 99/89/85
f 101/90/86 114/81/75 115/79/73 103/91/87
f 103/91/87 115/79/73 113/78/72 102/92/88
f 116/63/61 96/84/79 97/23/78 118/22/62
f 118/22/62 97/23/78 95/83/77 28/25/15
f 119/93/20 93/85/80 94/20/81 122/29/63
f 122/21/63 94/21/81 92/68/82 120/94/64
f 2/2/3 93/85/80 119/28/20 24/2/3
f 21/95/3 108/75/69 93/85/80 2/2/3 16/1/3
f 92/68/82 96/84/79 116/63/61 120/94/64
f 111/77/71 96/84/79 92/68/82 107/70/66
f 95/83/77 4/3/6 18/3/6 28/25/15
f 17/4/6 4/3/6 95/83/77 110/82/76 22/96/6
f 19/19/3 99/89/85 104/76/70 21/95/3 16/1/3 1/16/3
f 19/97/13 20/62/13 101/90/89 103/91/89 102/92/89 98/98/89 100/99/89 99/100/89
f 102/92/88 113/78/72 105/69/65 98/86/83
f 3/17/6 17/4/6 22/96/6 114/81/75 101/90/86 20/62/6
f 104/76/70 108/75/69 21/95/3
f 111/77/71 107/70/66 105/69/65 113/78/72
f 110/82/76 114/81/75 22/96/6
f 117/22/16 121/67/18 120/94/64 116/63/61
f 117/65/16 28/25/15 29/24/6
f 119/93/20 121/29/18 30/29/3
f 123/101/10 124/102/10 126/103/90 125/104/90
f 125/104/90 126/103/90 128/105/91 127/106/91
f 127/106/91 128/105/91 130/107/6 129/108/6
f 129/108/6 130/107/6 132/109/92 131/110/92
f 131/110/92 132/109/92 134/111/93 133/112/93
f 133/112/93 134/111/93 136/113/94 135/114/94
f 135/114/94 136/113/94 138/115/95 137/116/95
f 137/116/95 138/115/95 140/117/96 139/118/96
f 139/118/96 140/117/96 142/119/3 141/120/3
f 141/120/3 142/119/3 144/121/97 143/122/97
f 146/123/33 144/121/33 157/121/33 158/123/33
f 143/122/97 144/121/97 146/123/98 145/124/98
f 145/124/98 146/123/98 124/125/10 123/126/10
f 151/109/97 150/107/3 162/107/3 163/109/97
f 128/105/33 126/103/33 147/103/33 149/105/33
f 144/121/33 142/119/33 156/119/33 157/121/33
f 142/119/33 140/117/33 155/117/33 156/119/33
f 140/117/33 138/115/33 154/115/33 155/117/33
f 138/115/33 136/113/33 153/113/33 154/115/33
f 136/113/33 134/111/33 152/111/33 153/113/33
f 134/111/33 132/109/33 151/109/33 152/111/33
f 132/109/33 130/107/33 150/107/33 151/109/33
f 124/125/33 146/123/33 158/123/33 148/125/33
f 126/103/33 124/102/33 148/102/33 147/103/33
f 130/107/33 128/105/33 149/105/33 150/107/33
f 158/123/93 157/121/92 169/121/92 170/123/93
f 147/103/95 148/102/94 160/102/94 159/103/95
f 155/117/91 154/115/90 166/115/90 167/117/91
f 152/111/98 151/109/97 163/109/97 164/111/98
f 148/125/94 158/123/93 170/123/93 160/125/94
f 149/105/96 147/103/95 159/103/95 161/105/96
f 156/119/6 155/117/91 167/117/91 168/119/6
f 153/113/10 152/111/98 164/111/98 165/113/10
f 150/107/3 149/105/96 161/105/96 162/107/3
f 157/121/92 156/119/6 168/119/6 169/121/92
f 154/115/90 153/113/10 165/113/10 166/115/90
